<?xml version="1.0" standalone="no"?>
<!DOCTYPE svg PUBLIC "-//W3C//DTD SVG 20010904//EN"
 "http://www.w3.org/TR/2001/REC-SVG-20010904/DTD/svg10.dtd">
<svg version="1.0" xmlns="http://www.w3.org/2000/svg"
 width="409.000000pt" height="843.000000pt" viewBox="0 0 409.000000 843.000000"
 preserveAspectRatio="xMidYMid meet">

<g transform="translate(0.000000,843.000000) scale(0.100000,-0.100000)"
fill="#000000" stroke="none">
<path d="M433 8195 c-179 -49 -311 -197 -331 -372 -4 -37 -6 -1770 -4 -3851
l4 -3782 1944 0 1944 0 0 3238 c0 1780 3 3471 6 3757 7 592 2 668 -46 770 -57
119 -163 205 -297 240 -83 22 -3139 21 -3220 0z m2627 -200 c9 -11 8 -19 -4
-37 -18 -25 -22 -53 -6 -43 6 4 8 11 5 16 -7 10 8 12 18 2 8 -7 -21 -43 -35
-43 -4 0 -8 10 -8 23 0 12 -8 33 -17 47 -16 22 -16 23 0 17 12 -5 17 -1 17 13
0 24 13 26 30 5z m-1020 -5 c0 -5 -4 -10 -10 -10 -5 0 -10 5 -10 10 0 6 5 10
10 10 6 0 10 -4 10 -10z m1330 6 c0 -2 -9 -23 -20 -47 -11 -24 -20 -38 -20
-31 0 7 7 26 15 42 15 28 14 29 -13 33 -25 4 -25 4 6 6 17 0 32 -1 32 -3z m40
0 c0 -3 -4 -8 -10 -11 -5 -3 -10 -1 -10 4 0 6 5 11 10 11 6 0 10 -2 10 -4z
m30 -18 c-1 -23 -31 -68 -46 -68 -4 0 3 11 16 25 14 15 21 31 17 45 -3 11 -1
20 4 20 5 0 9 -10 9 -22z m34 7 c-4 -8 -1 -15 4 -15 6 0 13 8 15 18 3 12 5 11
6 -6 1 -15 5 -21 13 -16 6 4 8 3 5 -4 -8 -11 -44 -5 -53 9 -3 5 -2 14 1 19 9
15 15 12 9 -5z m214 -62 c-3 -38 -3 -38 -48 -38 -45 0 -45 0 -48 38 l-3 37 51
0 51 0 -3 -37z m-142 3 c2 -12 1 -13 -3 -1 -6 20 -23 19 -23 -2 0 -9 -3 -14
-6 -10 -4 3 -4 13 0 22 8 21 30 14 32 -9z m-526 10 c0 -3 -4 -8 -10 -11 -5 -3
-10 -1 -10 4 0 6 5 11 10 11 6 0 10 -2 10 -4z m117 -38 c-3 -8 -6 -5 -6 6 -1
11 2 17 5 13 3 -3 4 -12 1 -19z m-1055 -375 c11 -10 18 -30 18 -55 0 -27 4
-38 15 -38 35 0 49 -128 18 -162 -13 -14 -31 -18 -94 -18 -97 0 -109 10 -109
86 0 61 13 94 35 94 11 0 15 11 15 39 0 23 7 46 16 55 20 21 63 20 86 -1z
m-535 -1908 c52 -22 72 -42 99 -100 20 -42 24 -66 24 -151 0 -61 -6 -120 -15
-152 -33 -109 -116 -177 -229 -189 l-56 -6 0 40 0 40 50 6 c87 10 133 53 154
140 l7 28 -46 -27 c-83 -48 -182 -19 -226 68 -29 57 -29 152 1 212 43 90 146
129 237 91z m743 -190 l0 -195 40 0 c39 0 40 -1 40 -35 0 -34 -1 -35 -40 -35
l-40 0 0 -70 0 -70 -50 0 -50 0 0 70 0 70 -130 0 -130 0 0 26 c0 24 24 65 217
367 l43 67 50 0 50 0 0 -195z m410 -105 l0 -300 -50 0 -50 0 0 240 c0 132 -4
240 -8 240 -5 0 -35 -9 -67 -20 -32 -11 -60 -20 -62 -20 -1 0 -3 17 -3 39 l0
39 108 40 c59 23 113 41 120 41 9 1 12 -65 12 -299z m-859 190 c11 -6 19 -21
19 -35 0 -20 -24 -45 -44 -45 -10 0 -36 32 -36 45 0 13 26 45 36 45 3 0 14 -5
25 -10z m9 -345 c26 -32 -13 -81 -47 -59 -35 22 -23 74 17 74 10 0 23 -7 30
-15z m-120 -506 l0 -70 -37 3 c-35 3 -38 6 -41 36 -4 42 14 65 45 57 19 -4 23
-2 23 20 0 14 2 25 5 25 3 0 5 -32 5 -71z m-410 9 l22 -53 24 53 c13 28 28 52
34 52 6 0 10 -28 10 -65 0 -42 -4 -65 -11 -65 -8 0 -9 16 -5 52 8 59 -1 57
-25 -5 -9 -23 -20 -42 -26 -44 -5 -2 -18 20 -28 49 l-20 53 -6 -55 -6 -55 -1
68 c-1 37 2 67 7 67 4 0 18 -24 31 -52z m780 6 c0 -25 -5 -54 -10 -65 -13 -23
-65 -26 -74 -4 -3 8 -1 15 4 15 6 0 10 -5 10 -11 0 -6 10 -9 23 -7 19 3 22 10
25 61 4 68 22 77 22 11z m688 -21 l-2 -68 -3 59 c-4 52 -6 58 -24 53 -21 -6
-27 8 -6 16 33 14 37 7 35 -60z m-1272 8 c19 -38 3 -66 -37 -66 -31 0 -34 3
-37 33 -2 18 2 40 9 48 17 21 51 13 65 -15z m104 9 c13 -20 13 -80 0 -80 -5 0
-10 18 -10 39 0 69 -45 63 -53 -7 -3 -31 -4 -29 -5 13 -2 50 -2 51 28 50 17 0
35 -7 40 -15z m211 -33 l5 -48 -35 3 c-29 2 -37 8 -39 26 -3 18 2 23 27 28 17
4 31 11 31 16 0 15 -30 21 -45 8 -9 -8 -15 -8 -15 -2 0 13 19 21 45 19 16 -2
21 -11 26 -50z m44 23 c9 -41 22 -46 30 -10 4 16 11 32 16 35 13 9 11 -2 -14
-70 -16 -43 -28 -61 -42 -63 -18 -2 -18 -2 -2 8 21 13 22 36 2 83 -18 42 -18
47 -6 47 5 0 12 -13 16 -30z m313 18 c7 -7 12 -29 12 -50 0 -37 -1 -38 -35
-38 -23 0 -38 6 -41 15 -8 20 13 45 37 45 11 0 19 7 19 15 0 17 -25 20 -35 5
-3 -5 -11 -10 -17 -10 -7 0 -6 6 2 15 15 18 42 19 58 3z m108 -43 c1 -41 0
-43 -3 -10 -2 22 -8 44 -13 49 -15 15 -39 -13 -43 -52 -3 -31 -4 -28 -5 14
l-2 51 33 -1 c32 -1 32 -2 33 -51z m54 10 c0 -38 3 -45 20 -45 17 0 20 7 20
45 0 25 5 45 10 45 6 0 10 -23 10 -51 l0 -50 -37 3 c-38 3 -38 3 -41 51 -2 28
1 47 7 47 6 0 11 -20 11 -45z m158 -7 l3 -48 -36 0 c-58 0 -58 54 0 62 19 2
22 6 15 18 -8 12 -13 13 -30 2 -11 -7 -20 -8 -20 -4 0 16 14 23 40 20 22 -3
25 -8 28 -50z m113 15 l12 -38 18 40 c22 51 24 33 3 -31 -18 -53 -31 -74 -46
-74 -5 0 -2 7 7 16 9 9 14 22 12 28 -2 6 -10 28 -18 49 -20 57 -53 45 -62 -23
-3 -28 -4 -25 -5 15 l-2 51 34 2 c31 2 35 -1 47 -35z m-682 -87 c-9 -8 -10 -7
-5 7 3 10 7 24 7 30 1 7 3 4 6 -7 3 -10 -1 -23 -8 -30z m1871 -315 c19 -10 49
-37 65 -60 l30 -43 3 -364 c3 -412 1 -423 -74 -480 l-37 -29 -1346 -1 c-740
-1 -1339 0 -1330 3 11 2 15 11 12 22 -3 12 2 20 14 23 17 4 19 15 18 94 l-1
90 43 -2 c28 0 42 3 40 10 -3 6 -9 10 -14 9 -5 -1 -14 7 -21 18 -8 13 -9 19
-1 19 20 0 3 24 -22 30 -22 5 -24 11 -25 60 0 62 11 87 32 69 7 -6 23 -9 36
-7 17 2 24 11 26 33 l4 30 13 -33 c18 -41 29 -41 43 1 10 31 10 32 11 5 1 -20
7 -29 25 -34 14 -3 31 -2 38 2 9 6 4 11 -17 15 l-30 7 28 1 c19 1 27 6 27 20
0 27 -25 44 -47 33 -10 -5 -23 -7 -30 -5 -6 2 -15 -6 -19 -19 l-7 -23 -10 23
c-6 13 -16 21 -23 18 -8 -3 -16 -1 -19 4 -9 14 -31 12 -48 -4 -11 -12 -15 -12
-23 3 -6 9 -10 29 -9 44 1 20 -2 27 -14 26 -9 -1 -80 -1 -158 0 l-143 1 0 25
c0 18 5 25 20 25 25 0 41 29 29 52 -6 10 -7 22 -4 27 9 16 -7 41 -26 41 -10 0
-19 5 -19 10 0 6 33 10 78 10 109 1 196 11 204 24 5 8 8 7 8 -2 0 -8 6 -12 13
-9 15 5 18 188 2 199 -5 4 582 8 1305 8 1262 0 1317 -1 1350 -19z m-2673 -33
c-3 -8 -6 -5 -6 6 -1 11 2 17 5 13 3 -3 4 -12 1 -19z m0 -40 c-3 -8 -6 -5 -6
6 -1 11 2 17 5 13 3 -3 4 -12 1 -19z m0 -40 c-3 -8 -6 -5 -6 6 -1 11 2 17 5
13 3 -3 4 -12 1 -19z m0 -40 c-3 -8 -6 -5 -6 6 -1 11 2 17 5 13 3 -3 4 -12 1
-19z m-267 -98 c0 -5 -4 -10 -10 -10 -5 0 -10 5 -10 10 0 6 5 10 10 10 6 0 10
-4 10 -10z m-242 -28 c7 -3 12 -24 12 -58 0 -57 1 -58 70 -66 21 -3 25 -9 28
-40 3 -32 -3 -43 -37 -77 -46 -46 -44 -45 -73 -30 -25 13 -89 3 -85 -14 1 -7
-3 -11 -9 -10 -14 3 -25 -32 -20 -62 7 -45 -65 -31 -98 19 -12 20 -16 50 -16
140 l0 115 35 35 c19 20 50 40 68 45 32 10 100 11 125 3z m244 -27 c0 -5 -5
-11 -11 -13 -6 -2 -11 4 -11 13 0 9 5 15 11 13 6 -2 11 -8 11 -13z m-169 -62
c-9 -7 -22 -12 -28 -10 -13 5 -19 33 -11 54 6 14 10 13 32 -8 23 -22 24 -24 7
-36z m434 -65 c-3 -8 -6 -5 -6 6 -1 11 2 17 5 13 3 -3 4 -12 1 -19z m101 -66
c2 -15 -2 -22 -12 -22 -11 0 -16 9 -16 26 0 31 23 28 28 -4z m142 18 c0 -5 -7
-10 -16 -10 -8 0 -12 5 -9 10 3 6 10 10 16 10 5 0 9 -4 9 -10z m-200 -20 c0
-5 -5 -10 -11 -10 -5 0 -7 5 -4 10 3 6 8 10 11 10 2 0 4 -4 4 -10z m-43 -92
c-3 -8 -6 -5 -6 6 -1 11 2 17 5 13 3 -3 4 -12 1 -19z m-591 -32 c-2 -38 -12
-39 -12 -1 0 18 3 32 7 30 3 -3 5 -15 5 -29z m591 -8 c-3 -8 -6 -5 -6 6 -1 11
2 17 5 13 3 -3 4 -12 1 -19z m63 -94 c0 -2 -7 -4 -15 -4 -8 0 -15 4 -15 10 0
5 7 7 15 4 8 -4 15 -8 15 -10z m-63 -66 c-3 -8 -6 -5 -6 6 -1 11 2 17 5 13 3
-3 4 -12 1 -19z m0 -40 c-3 -8 -6 -5 -6 6 -1 11 2 17 5 13 3 -3 4 -12 1 -19z
m0 -40 c-3 -8 -6 -5 -6 6 -1 11 2 17 5 13 3 -3 4 -12 1 -19z m0 -40 c-3 -8 -6
-5 -6 6 -1 11 2 17 5 13 3 -3 4 -12 1 -19z"/>
<path d="M3040 7980 c0 -5 5 -10 10 -10 6 0 10 5 10 10 0 6 -4 10 -10 10 -5 0
-10 -4 -10 -10z"/>
<path d="M2012 7508 c-7 -7 -12 -27 -12 -45 0 -32 1 -33 40 -33 39 0 40 1 40
33 0 36 -15 57 -40 57 -9 0 -21 -5 -28 -12z"/>
<path d="M2027 7338 c3 -18 7 -35 9 -37 6 -7 11 2 17 37 6 27 4 32 -13 32 -17
0 -19 -5 -13 -32z"/>
<path d="M1420 5522 c-47 -48 -52 -141 -10 -195 52 -66 170 -19 170 68 0 127
-89 197 -160 127z"/>
<path d="M2118 5371 c-95 -152 -94 -141 -4 -141 l76 0 0 125 c0 69 -1 125 -3
125 -1 0 -33 -49 -69 -109z"/>
<path d="M1670 4665 c-7 -9 -10 -25 -6 -41 5 -19 12 -25 29 -22 25 3 35 41 17
64 -16 18 -24 18 -40 -1z"/>
<path d="M1460 4666 c-6 -8 -10 -25 -8 -38 2 -17 10 -23 28 -23 18 0 26 6 28
23 3 22 -13 52 -28 52 -4 0 -13 -7 -20 -14z"/>
<path d="M1780 4630 c-11 -7 -12 -12 -3 -21 15 -15 43 -5 43 16 0 17 -18 19
-40 5z"/>
<path d="M2147 4633 c-14 -13 -6 -33 13 -33 13 0 20 7 20 20 0 19 -20 27 -33
13z"/>
<path d="M2457 4633 c-14 -13 -6 -33 12 -33 19 0 35 23 24 34 -8 8 -28 8 -36
-1z"/>
<path d="M2185 4039 c-10 -15 3 -25 16 -12 7 7 7 13 1 17 -6 3 -14 1 -17 -5z"/>
<path d="M2446 4041 c-4 -7 -5 -15 -2 -18 9 -9 19 4 14 18 -4 11 -6 11 -12 0z"/>
<path d="M1110 3975 c0 -51 3 -65 15 -65 8 0 15 5 15 12 0 9 3 9 12 0 7 -7 18
-12 26 -12 12 0 11 5 -3 26 -16 24 -16 27 1 45 14 15 14 19 3 19 -8 0 -20 -5
-27 -12 -9 -9 -12 -5 -12 20 0 22 -5 32 -15 32 -12 0 -15 -14 -15 -65z"/>
<path d="M1460 3975 c0 -50 3 -65 14 -65 9 0 16 12 18 32 4 46 28 49 28 4 0
-25 4 -36 15 -36 23 0 21 76 -2 88 -10 5 -24 7 -30 5 -8 -3 -13 4 -13 16 0 12
-6 21 -15 21 -12 0 -15 -14 -15 -65z"/>
<path d="M1600 3982 c0 -44 4 -61 15 -66 12 -4 15 3 16 32 l1 37 14 -33 c18
-40 33 -38 50 9 l12 34 1 -37 c1 -27 5 -38 16 -38 8 0 15 8 15 18 1 16 1 16
11 0 6 -11 22 -18 39 -18 35 0 40 17 8 23 -20 4 -19 4 5 6 15 0 27 6 27 12 0
5 5 7 11 3 8 -5 8 -9 -1 -14 -7 -4 -10 -12 -6 -18 8 -13 137 -13 154 0 8 7 12
7 12 -1 0 -6 17 -11 40 -11 24 0 40 5 40 12 0 9 3 9 12 0 7 -7 20 -12 31 -12
10 0 15 -5 12 -10 -4 -6 -16 -8 -27 -4 -15 4 -19 2 -16 -7 7 -20 43 -22 62 -4
10 11 16 34 16 66 l0 49 -34 0 c-18 0 -39 -7 -46 -15 -11 -14 -14 -13 -24 1
-14 18 -57 16 -64 -4 -3 -9 3 -11 22 -6 34 8 33 -1 -2 -18 -24 -13 -31 -12
-57 4 l-30 19 29 -7 c22 -5 28 -4 24 7 -6 19 -46 23 -65 7 -13 -10 -17 -10
-20 0 -3 6 -17 12 -33 12 -16 0 -30 -6 -33 -12 -4 -10 -7 -10 -18 0 -19 18
-56 15 -68 -5 -9 -15 -10 -12 -11 15 0 29 -3 33 -22 30 -15 -2 -25 -13 -32
-35 -5 -18 -12 -33 -16 -33 -4 0 -11 15 -16 33 -7 22 -17 33 -32 35 -21 3 -22
0 -22 -56z m200 -2 c0 -5 -4 -10 -10 -10 -5 0 -10 5 -10 10 0 6 5 10 10 10 6
0 10 -4 10 -10z m128 -17 c7 -7 18 -13 24 -13 6 0 9 -3 6 -6 -6 -6 -98 33 -98
41 0 10 55 -8 68 -22z m212 2 c0 -16 -6 -25 -15 -25 -9 0 -15 9 -15 25 0 16 6
25 15 25 9 0 15 -9 15 -25z m-90 -15 c0 -5 -7 -10 -16 -10 -8 0 -12 5 -9 10 3
6 10 10 16 10 5 0 9 -4 9 -10z"/>
<path d="M2780 4020 c0 -5 -9 -10 -20 -10 -16 0 -20 -7 -20 -35 0 -24 -5 -35
-15 -35 -10 0 -15 11 -15 35 0 19 -5 35 -11 35 -6 0 -9 -17 -7 -42 3 -42 4
-43 41 -46 37 -3 37 -3 38 35 l2 38 6 -35 c3 -20 13 -36 21 -38 12 -2 15 7 14
45 -1 26 -3 51 -3 56 -1 11 -31 8 -31 -3z"/>
<path d="M938 3999 c-27 -15 -21 -30 10 -24 27 5 27 5 2 -5 -56 -25 -47 -60
16 -60 41 0 56 11 34 25 -5 3 -10 19 -10 35 0 16 -7 30 -16 34 -19 7 -15 8
-36 -5z m27 -59 c-3 -5 -11 -10 -16 -10 -6 0 -7 5 -4 10 3 6 11 10 16 10 6 0
7 -4 4 -10z"/>
<path d="M1030 3990 c-23 -23 -25 -39 -7 -64 15 -20 68 -19 75 2 3 9 -5 12
-24 10 -23 -2 -29 1 -29 17 0 13 7 20 20 21 37 2 40 5 21 19 -26 19 -32 19
-56 -5z"/>
<path d="M1388 3999 c-26 -15 -22 -36 10 -54 24 -13 24 -15 5 -13 -12 2 -22
-1 -23 -7 0 -5 15 -10 33 -10 25 0 32 4 32 20 0 11 -11 25 -25 32 -24 12 -25
13 -2 13 25 0 30 15 6 24 -19 7 -15 8 -36 -5z"/>
<path d="M2180 3966 c0 -35 4 -46 16 -46 12 0 14 9 12 42 -4 59 -28 63 -28 4z"/>
<path d="M2220 3963 c0 -50 17 -59 22 -11 4 46 28 49 28 4 0 -25 4 -36 15 -36
8 0 15 8 15 18 1 16 1 16 11 0 5 -10 19 -18 29 -18 11 0 20 -5 20 -11 0 -6 -9
-9 -20 -6 -11 3 -23 1 -26 -4 -9 -15 26 -22 52 -11 21 10 24 18 24 67 l0 55
-35 0 c-22 0 -37 -6 -44 -17 -9 -17 -10 -17 -16 -1 -5 12 -17 17 -41 16 -33
-1 -34 -2 -34 -45z m140 2 c0 -16 -6 -25 -15 -25 -15 0 -21 31 -8 43 13 14 23
6 23 -18z"/>
<path d="M2440 3965 c0 -25 5 -45 10 -45 6 0 10 20 10 45 0 25 -4 45 -10 45
-5 0 -10 -20 -10 -45z"/>
<path d="M2482 3998 c-12 -16 -6 -30 23 -46 18 -11 17 -12 -9 -6 -22 5 -28 4
-24 -7 3 -8 19 -14 39 -14 43 0 53 30 15 45 -34 12 -33 22 0 14 20 -5 25 -3
22 7 -6 19 -52 23 -66 7z"/>
<path d="M2598 3984 c-14 -31 -1 -57 31 -62 28 -4 51 14 51 42 0 50 -62 65
-82 20z m52 -19 c0 -16 -6 -25 -15 -25 -9 0 -15 9 -15 25 0 16 6 25 15 25 9 0
15 -9 15 -25z"/>
<path d="M2931 3966 l2 -41 6 35 c4 22 12 35 21 35 9 0 18 -13 22 -35 l6 -35
-1 40 c-2 36 -5 40 -29 41 -26 1 -28 -1 -27 -40z"/>
<path d="M3010 3991 c-15 -29 4 -63 33 -59 18 2 22 10 22 38 0 28 -4 36 -22
38 -14 2 -26 -4 -33 -17z m45 -22 c0 -15 -7 -25 -17 -27 -13 -3 -18 3 -18 21
0 13 3 27 7 31 13 12 28 -1 28 -25z"/>
<path d="M3082 4005 c0 -5 5 -26 13 -45 l13 -35 12 30 12 30 12 -30 12 -30 12
34 c7 19 12 39 11 45 0 6 -6 -5 -13 -24 l-13 -35 -7 28 c-8 33 -21 35 -30 5
-6 -22 -7 -22 -21 7 -7 17 -13 26 -13 20z"/>
<path d="M1200 3955 c0 -33 4 -45 15 -45 10 0 15 10 15 30 0 18 6 33 15 36 25
10 17 24 -15 24 -29 0 -30 -2 -30 -45z"/>
<path d="M1272 3958 c3 -43 3 -43 46 -46 l42 -3 0 45 c0 33 -4 46 -14 46 -9 0
-16 -12 -18 -32 -4 -46 -28 -49 -28 -4 0 26 -4 36 -16 36 -12 0 -14 -9 -12
-42z"/>
<path d="M2141 3820 c-10 -5 -14 -24 -13 -56 3 -57 12 -73 12 -21 0 23 5 37
13 37 8 0 7 4 -3 10 -13 9 -13 11 0 19 18 12 9 23 -9 11z"/>
<path d="M1642 3765 c1 -46 2 -52 7 -26 8 48 31 53 31 7 0 -20 5 -36 11 -36 6
0 9 16 7 38 -2 29 -8 38 -25 40 -12 2 -24 11 -26 20 -3 9 -5 -10 -5 -43z"/>
<path d="M2060 3806 c0 -8 -10 -16 -22 -18 -18 -2 -24 -11 -26 -35 -3 -27 1
-33 22 -39 14 -3 30 -3 35 1 14 8 14 105 1 105 -5 0 -10 -6 -10 -14z m0 -50
c0 -14 -4 -27 -9 -30 -13 -9 -32 19 -25 38 10 25 34 19 34 -8z"/>
<path d="M2893 3765 c0 -33 2 -45 4 -27 2 18 2 45 0 60 -2 15 -4 0 -4 -33z"/>
<path d="M2318 3798 c-6 -20 6 -81 17 -85 8 -2 11 35 6 90 -1 12 -19 8 -23 -5z"/>
<path d="M2658 3798 c-6 -20 6 -81 17 -85 8 -2 11 35 6 90 -1 12 -19 8 -23 -5z"/>
<path d="M3129 3798 c-3 -32 9 -88 19 -88 6 0 7 45 3 93 -1 12 -21 8 -22 -5z"/>
<path d="M1410 3750 c0 -22 5 -40 10 -40 6 0 10 15 10 34 0 19 6 37 13 39 6 3
2 6 -10 6 -20 1 -23 -4 -23 -39z"/>
<path d="M1484 3766 c-4 -16 -1 -32 6 -41 14 -17 46 -20 55 -5 4 6 -5 10 -19
10 -14 0 -26 5 -26 10 0 6 12 10 26 10 36 0 29 34 -8 38 -22 3 -29 -2 -34 -22z
m46 4 c0 -5 -7 -10 -16 -10 -8 0 -12 5 -9 10 3 6 10 10 16 10 5 0 9 -4 9 -10z"/>
<path d="M1560 3749 c0 -24 4 -38 10 -34 6 3 10 20 10 36 0 42 23 33 31 -12 6
-34 6 -34 8 9 1 40 0 42 -29 42 -28 0 -30 -2 -30 -41z"/>
<path d="M1715 3780 c-4 -7 2 -9 19 -4 16 4 26 2 26 -4 0 -6 -10 -12 -22 -14
-35 -5 -31 -42 5 -46 26 -3 27 -1 27 37 0 37 -3 41 -24 41 -14 0 -28 -5 -31
-10z m43 -42 c-6 -18 -28 -21 -28 -4 0 9 7 16 16 16 9 0 14 -5 12 -12z"/>
<path d="M1791 3748 c2 -43 2 -43 8 -8 4 22 12 35 21 35 9 0 18 -13 22 -35 l6
-35 -1 40 c-2 36 -5 40 -29 43 -27 3 -28 2 -27 -40z"/>
<path d="M1864 3766 c-11 -45 29 -73 57 -40 11 14 13 14 21 0 10 -18 43 -21
53 -6 4 6 -3 9 -16 7 -12 -1 -24 4 -26 11 -3 7 5 12 22 12 20 0 26 4 23 18 -6
30 -45 27 -62 -6 -25 -48 -56 -51 -56 -5 0 25 18 30 39 11 11 -11 13 -10 9 2
-3 8 -16 16 -31 18 -21 3 -28 -2 -33 -22z m121 4 c3 -5 -3 -10 -15 -10 -12 0
-18 5 -15 10 3 6 10 10 15 10 5 0 12 -4 15 -10z"/>
<path d="M2170 3775 c-10 -12 -10 -21 -2 -40 12 -25 45 -34 57 -15 4 6 -3 9
-16 7 -12 -1 -24 4 -26 11 -3 7 5 12 22 12 20 0 26 4 23 18 -4 22 -41 27 -58
7z m45 -5 c3 -5 -3 -10 -15 -10 -12 0 -18 5 -15 10 3 6 10 10 15 10 5 0 12 -4
15 -10z"/>
<path d="M2244 3779 c-5 -9 -2 -10 10 -6 10 4 23 4 29 0 7 -4 2 -9 -13 -13
-37 -9 -34 -45 3 -46 26 -1 28 1 25 35 -2 28 -8 37 -25 39 -11 2 -25 -2 -29
-9z m46 -38 c0 -14 -18 -23 -30 -16 -6 4 -8 11 -5 16 8 12 35 12 35 0z"/>
<path d="M2363 3755 c2 -36 5 -40 30 -43 26 -3 27 -2 26 40 -2 43 -2 43 -8 8
-4 -22 -12 -35 -21 -35 -9 0 -18 13 -22 35 l-6 35 1 -40z"/>
<path d="M2441 3747 c2 -42 2 -42 8 -8 8 45 31 54 31 13 0 -22 6 -32 21 -37
12 -4 25 -3 30 2 6 6 1 9 -12 9 -12 -1 -24 5 -26 12 -3 7 5 12 22 12 20 0 26
4 23 18 -2 13 -15 18 -51 19 l-47 2 1 -42z m84 23 c3 -5 -3 -10 -15 -10 -12 0
-18 5 -15 10 3 6 10 10 15 10 5 0 12 -4 15 -10z"/>
<path d="M2557 3783 c-13 -13 -7 -24 20 -34 19 -7 23 -13 15 -21 -8 -8 -15 -8
-27 2 -9 7 -15 8 -15 2 0 -13 36 -26 50 -17 17 10 11 33 -10 40 -26 8 -26 29
0 22 11 -3 18 -1 14 4 -6 10 -38 12 -47 2z"/>
<path d="M2707 3783 c-13 -13 -7 -61 9 -67 26 -10 34 -7 46 19 8 19 8 28 -2
40 -13 15 -42 20 -53 8z m41 -30 c-3 -30 -25 -42 -34 -19 -9 22 2 46 21 46 12
0 15 -8 13 -27z"/>
<path d="M2817 3784 c-4 -4 -7 -20 -7 -35 0 -29 33 -50 51 -32 6 6 1 9 -12 9
-12 -1 -24 5 -26 12 -3 7 5 12 22 12 20 0 26 4 23 18 -3 17 -38 29 -51 16z
m38 -14 c3 -5 -3 -10 -15 -10 -12 0 -18 5 -15 10 3 6 10 10 15 10 5 0 12 -4
15 -10z"/>
<path d="M2922 3778 c-25 -25 -6 -68 29 -68 10 0 21 4 24 10 4 6 -3 9 -16 7
-12 -1 -24 4 -26 11 -3 8 5 12 22 12 21 0 26 4 21 16 -3 9 -6 18 -6 20 0 9
-37 3 -48 -8z m38 -8 c0 -5 -7 -10 -15 -10 -8 0 -15 5 -15 10 0 6 7 10 15 10
8 0 15 -4 15 -10z"/>
<path d="M2991 3763 c21 -60 21 -59 35 -28 7 17 13 37 13 45 0 8 -6 2 -13 -15
l-13 -30 -8 28 c-4 15 -11 27 -16 27 -5 0 -4 -12 2 -27z"/>
<path d="M3055 3780 c-4 -7 2 -9 19 -4 15 3 26 2 26 -4 0 -5 -12 -13 -26 -16
-35 -9 -29 -41 9 -42 25 -1 27 2 27 37 0 35 -3 39 -24 39 -14 0 -28 -5 -31
-10z m45 -39 c0 -14 -18 -23 -30 -16 -6 4 -8 11 -5 16 8 12 35 12 35 0z"/>
<path d="M3174 3776 c-15 -38 23 -83 48 -58 11 11 10 12 -3 7 -9 -3 -22 1 -29
10 -11 13 -8 15 19 15 29 0 31 2 21 20 -12 23 -48 27 -56 6z m46 -6 c0 -5 -9
-10 -21 -10 -11 0 -17 5 -14 10 3 6 13 10 21 10 8 0 14 -4 14 -10z"/>
<path d="M3285 3749 c12 -34 13 -45 3 -57 -11 -13 -11 -14 0 -8 14 9 29 42 37
84 5 27 5 27 -9 -3 l-14 -30 -7 28 c-4 15 -11 27 -16 27 -4 0 -2 -19 6 -41z"/>
<path d="M3344 3765 c-7 -27 9 -55 31 -55 22 0 38 28 31 55 -5 18 -13 25 -31
25 -18 0 -26 -7 -31 -25z m50 -2 c8 -19 -17 -48 -33 -39 -12 8 -15 39 -4 49
12 12 31 7 37 -10z"/>
<path d="M3421 3765 c-1 -39 10 -54 37 -52 19 1 22 7 21 42 l-2 40 -6 -35 c-4
-22 -12 -35 -21 -35 -9 0 -17 13 -21 35 -6 34 -6 34 -8 5z"/>
<path d="M3501 3748 c2 -34 3 -37 6 -13 2 17 12 36 21 43 14 11 13 12 -6 12
-19 0 -22 -5 -21 -42z"/>
</g>
</svg>
