<?xml version="1.0" standalone="no"?>
<!DOCTYPE svg PUBLIC "-//W3C//DTD SVG 20010904//EN"
 "http://www.w3.org/TR/2001/REC-SVG-20010904/DTD/svg10.dtd">
<svg version="1.0" xmlns="http://www.w3.org/2000/svg"
 width="409.000000pt" height="843.000000pt" viewBox="0 0 409.000000 843.000000"
 preserveAspectRatio="xMidYMid meet">

<g transform="translate(0.000000,843.000000) scale(0.100000,-0.100000)"
fill="#000000" stroke="none">
<path d="M555 8334 c-102 -22 -204 -76 -283 -150 -40 -37 -59 -61 -47 -58 15
3 27 -6 46 -33 33 -48 47 -87 28 -81 -8 3 -13 16 -12 29 2 20 1 21 -7 7 -8
-13 -2 -34 21 -85 39 -86 46 -125 25 -142 -9 -7 -16 -18 -16 -24 0 -5 8 -3 18
6 26 23 34 10 17 -24 -19 -36 -19 -45 0 -29 15 12 22 0 8 -14 -11 -11 -14 -48
-3 -41 10 6 15 -9 10 -30 -1 -5 -2 -23 -2 -40 1 -16 -5 -36 -11 -44 -10 -12
-9 -13 12 -2 23 13 23 12 17 -12 -3 -15 -1 -29 5 -32 6 -5 3 -12 -10 -22 -29
-20 -27 -35 3 -23 21 8 23 6 19 -13 -3 -12 -17 -35 -32 -52 -14 -16 -18 -23
-8 -16 14 11 17 11 17 -2 0 -9 -7 -22 -15 -31 -19 -19 -20 -32 -1 -17 23 19
31 -7 9 -27 -11 -9 -13 -13 -7 -9 9 6 11 2 7 -13 -3 -11 -18 -27 -34 -36 -34
-17 -37 -24 -9 -17 24 6 26 -5 3 -22 -16 -12 -16 -14 -1 -37 16 -24 16 -26 -7
-38 -13 -7 -21 -18 -18 -26 6 -17 -18 -18 -36 -1 -10 8 -12 9 -7 0 7 -14 -2
-63 -13 -61 -3 0 -9 -1 -13 -2 -5 -1 -12 -3 -18 -4 -22 -3 -3 -21 20 -19 14 2
-2 -8 -35 -21 -33 -14 -55 -25 -49 -25 21 -2 10 -32 -14 -38 -30 -7 -10 -23
22 -16 11 2 1 -5 -24 -15 l-45 -20 0 -3163 c0 -3044 1 -3166 18 -3224 32 -103
86 -195 157 -265 77 -77 129 -109 236 -147 l79 -28 1470 0 1470 0 80 28 c93
33 131 54 203 115 107 90 183 233 203 379 6 52 9 1268 7 3668 l-3 3590 -26 72
c-39 106 -73 159 -154 239 -84 83 -181 136 -293 159 -109 22 -2871 21 -2977
-1z m2555 -365 c0 -37 -4 -58 -10 -54 -18 11 -12 115 7 115 2 0 3 -27 3 -61z
m250 36 c25 -16 6 -21 -30 -9 -35 12 -45 12 -75 0 -38 -16 -57 -6 -22 12 41
20 91 19 127 -3z m310 -35 l0 -60 -88 0 c-99 0 -112 7 -112 60 0 53 13 60 112
60 l88 0 0 -60z m-600 -10 c0 -21 -4 -42 -10 -45 -6 -4 -10 13 -10 45 0 32 4
49 10 45 6 -3 10 -24 10 -45z m-2753 18 c-3 -8 -6 -5 -6 6 -1 11 2 17 5 13 3
-3 4 -12 1 -19z m3018 -9 c3 -4 -9 -7 -27 -6 -18 0 -37 -1 -43 -4 -5 -2 -11 1
-13 6 -7 21 71 25 83 4z m-315 -29 c0 -16 -4 -30 -10 -30 -5 0 -10 14 -10 30
0 17 5 30 10 30 6 0 10 -13 10 -30z m-50 -10 c0 -11 -4 -20 -10 -20 -5 0 -10
9 -10 20 0 11 5 20 10 20 6 0 10 -9 10 -20z m332 -2 c-6 -6 -16 -7 -22 -3 -9
6 -9 9 1 16 17 10 34 0 21 -13z m-2907 -508 c3 -5 1 -10 -4 -10 -6 0 -11 5
-11 10 0 6 2 10 4 10 3 0 8 -4 11 -10z m884 -202 c5 -13 15 -39 23 -58 l15
-35 26 58 c14 31 31 57 36 57 7 0 11 -28 11 -70 0 -44 -4 -70 -11 -70 -7 0
-10 20 -7 55 1 30 0 55 -4 55 -5 0 -8 -4 -8 -9 0 -5 -10 -31 -21 -58 l-21 -48
-15 35 c-40 92 -37 90 -43 25 l-7 -60 -1 73 c-2 72 10 94 27 50z m162 -32 c-7
-8 -11 -27 -9 -43 2 -22 8 -28 28 -28 20 0 26 6 28 28 2 16 -2 35 -9 43 -10
12 -9 13 5 8 13 -5 16 -16 14 -42 -4 -42 -29 -63 -55 -46 -29 18 -30 94 -2 94
8 0 8 -4 0 -14z m110 0 c-5 -6 -11 -29 -14 -51 -3 -37 -4 -36 -5 11 -2 39 1
51 13 51 9 0 11 -4 6 -11z m56 -68 c-2 -13 -4 -3 -4 22 0 25 2 35 4 23 2 -13
2 -33 0 -45z m-1392 -108 c-11 -5 -27 -9 -35 -9 -9 0 -8 4 5 9 11 5 27 9 35 9
9 0 8 -4 -5 -9z m1051 -138 c49 -25 68 -45 96 -107 21 -46 23 -64 23 -230 0
-167 -2 -184 -23 -230 -45 -99 -93 -129 -203 -129 -67 -1 -81 2 -125 29 -91
57 -119 150 -112 375 3 119 7 142 30 191 28 61 72 101 128 118 50 15 140 7
186 -17z m431 -28 c2 -35 -1 -42 -28 -58 -39 -23 -59 -70 -59 -136 0 -57 18
-99 54 -127 19 -16 24 -28 23 -61 -2 -36 -5 -42 -25 -42 -62 0 -131 56 -157
129 -18 53 -19 143 -1 194 29 80 109 150 166 144 21 -2 24 -8 27 -43z m-42
-584 c-1 -11 -6 -25 -12 -31 -20 -20 -4 -40 20 -28 21 10 21 10 3 -5 -11 -9
-32 -16 -48 -16 -27 0 -28 2 -28 50 0 50 0 50 33 50 28 0 33 -4 32 -20z m2096
-2553 c31 -16 51 -36 67 -67 21 -42 22 -55 22 -285 0 -230 -1 -243 -22 -285
-15 -30 -37 -53 -63 -67 l-40 -23 -1675 3 c-1637 2 -1676 2 -1706 21 -17 11
-42 35 -55 55 -23 33 -24 42 -27 250 -5 281 -1 312 47 363 21 23 51 43 71 48
19 4 778 8 1686 9 l1651 1 44 -23z m-1 -827 c21 -11 49 -34 62 -52 22 -32 23
-39 26 -290 3 -289 0 -305 -64 -354 l-37 -29 -1682 0 c-1627 0 -1683 1 -1716
19 -20 10 -46 35 -60 54 -23 34 -24 42 -27 251 -5 291 -2 315 53 368 24 23 56
43 72 46 15 2 772 5 1681 6 1628 1 1653 1 1692 -19z m24 -844 c63 -47 66 -65
66 -341 0 -276 -3 -294 -66 -341 l-37 -29 -1682 0 c-1627 0 -1683 1 -1716 19
-20 10 -46 35 -60 54 -23 34 -24 42 -27 251 -5 281 -1 312 47 363 21 23 51 43
71 48 19 4 785 7 1701 7 l1666 -2 37 -29z m-2954 -1101 c0 -11 -12 -15 -50
-15 -38 0 -50 4 -50 15 0 11 12 15 50 15 38 0 50 -4 50 -15z m2520 -9 c6 -8
26 -16 43 -18 l32 -3 0 -80 0 -80 -120 0 -120 0 0 80 0 80 32 3 c17 2 37 10
43 18 7 8 27 14 45 14 18 0 38 -6 45 -14z m-2525 -38 c-5 -13 -10 -56 -12 -95
-5 -72 -5 -73 -33 -73 -28 0 -28 1 -33 73 -2 39 -7 82 -12 95 -7 21 -5 22 45
22 50 0 52 -1 45 -22z"/>
<path d="M1109 6785 c-47 -25 -59 -78 -59 -247 0 -87 5 -167 12 -190 33 -110
171 -102 195 11 5 20 8 106 8 191 -1 126 -4 161 -18 187 -32 60 -83 78 -138
48z"/>
<path d="M2580 3555 l0 -75 80 0 80 0 0 75 0 75 -80 0 -80 0 0 -75z"/>
<path d="M760 3555 l0 -55 39 0 c22 0 43 5 46 10 4 6 12 4 21 -5 9 -8 20 -13
25 -9 6 3 43 6 84 6 47 0 75 4 75 11 0 7 4 7 12 -1 7 -7 24 -12 39 -12 23 0
28 5 31 27 4 31 28 44 28 15 0 -30 25 -50 54 -45 23 5 26 10 26 44 0 28 -4 39
-15 39 -10 0 -15 -10 -15 -30 0 -16 -4 -30 -10 -30 -5 0 -10 14 -10 30 0 30 0
30 -58 30 -32 0 -63 -5 -70 -12 -9 -9 -12 -6 -12 15 0 17 -5 27 -15 27 -11 0
-15 -11 -15 -42 0 -39 -2 -43 -25 -44 -19 -2 -25 3 -25 18 0 15 5 18 20 13 14
-5 20 -2 20 10 0 12 -8 16 -32 13 -28 -2 -34 -8 -39 -33 l-6 -30 -4 30 c-3 26
-9 30 -38 33 -30 3 -33 1 -28 -17 3 -12 1 -23 -4 -26 -4 -3 -11 7 -15 22 -11
50 -13 53 -49 53 l-35 0 0 -55z m45 25 c3 -5 1 -10 -4 -10 -6 0 -11 5 -11 10
0 6 2 10 4 10 3 0 8 -4 11 -10z m295 -42 c-1 -31 -1 -32 -15 -14 -11 14 -12
23 -4 33 17 19 19 17 19 -19z m-280 -8 c0 -5 -7 -10 -15 -10 -8 0 -15 5 -15
10 0 6 7 10 15 10 8 0 15 -4 15 -10z"/>
<path d="M1330 3555 c0 -42 3 -55 15 -55 10 0 15 10 15 30 0 17 5 30 10 30 6
0 10 -13 10 -30 0 -21 5 -30 16 -30 12 0 14 9 12 38 -2 30 -7 38 -25 40 -13 2
-23 10 -23 18 0 8 -7 14 -15 14 -12 0 -15 -13 -15 -55z"/>
<path d="M1430 3545 c0 -42 3 -55 15 -55 9 0 15 9 16 23 l0 22 9 -22 c11 -27
25 -29 39 -5 10 16 10 16 11 0 0 -10 7 -18 15 -18 12 0 15 13 15 55 0 65 -22
76 -45 23 l-14 -33 -13 33 c-7 19 -19 32 -30 32 -15 0 -18 -9 -18 -55z"/>
<path d="M1950 3590 c0 -5 7 -10 15 -10 8 0 15 5 15 10 0 6 -7 10 -15 10 -8 0
-15 -4 -15 -10z"/>
<path d="M2190 3590 c0 -5 7 -10 15 -10 8 0 15 5 15 10 0 6 -7 10 -15 10 -8 0
-15 -4 -15 -10z"/>
<path d="M2510 3580 c0 -5 -9 -10 -20 -10 -16 0 -20 -7 -20 -30 0 -16 -4 -30
-10 -30 -5 0 -10 14 -10 30 0 17 -4 30 -10 30 -16 0 -12 -77 4 -83 31 -12 56
4 57 37 2 27 2 28 6 6 6 -28 22 -52 32 -45 6 3 7 61 2 98 -2 11 -31 8 -31 -3z"/>
<path d="M1254 3568 c-4 -6 3 -20 17 -31 15 -13 18 -18 7 -14 -24 9 -33 -10
-11 -22 22 -11 53 3 53 25 0 8 -10 19 -22 24 l-23 9 23 0 c13 1 20 5 17 11 -9
14 -52 13 -61 -2z"/>
<path d="M1567 3563 c-4 -3 -7 -19 -7 -34 0 -31 28 -53 54 -43 23 9 19 24 -6
24 -27 0 -21 5 15 14 21 5 27 4 21 -5 -11 -19 25 -40 47 -28 13 6 25 6 38 -1
21 -11 51 -4 51 12 0 5 7 2 16 -7 9 -9 23 -14 31 -11 8 3 19 6 24 6 6 0 9 17
7 38 -3 34 -6 37 -33 37 -22 0 -30 -5 -30 -17 0 -10 -5 -17 -10 -16 -6 0 -9 9
-7 20 3 14 -3 18 -27 18 -18 0 -31 -5 -31 -12 0 -9 -3 -9 -12 0 -17 17 -58 15
-65 -4 -5 -15 -7 -15 -15 0 -9 16 -49 22 -61 9z m158 -33 c3 -5 2 -10 -4 -10
-5 0 -13 5 -16 10 -3 6 -2 10 4 10 5 0 13 -4 16 -10z"/>
<path d="M1877 3563 c-14 -13 -7 -62 11 -72 16 -10 16 -10 -1 -11 -10 0 -15
-4 -12 -10 11 -17 54 -11 65 9 5 11 10 36 10 55 0 34 -2 36 -33 36 -19 0 -37
-3 -40 -7z m43 -33 c0 -21 -15 -27 -25 -10 -7 12 2 30 16 30 5 0 9 -9 9 -20z"/>
<path d="M1960 3530 c0 -22 5 -40 10 -40 6 0 10 18 10 40 0 22 -4 40 -10 40
-5 0 -10 -18 -10 -40z"/>
<path d="M1990 3530 c0 -29 4 -40 15 -40 10 0 15 10 15 30 0 17 5 30 10 30 6
0 10 -13 10 -30 0 -28 23 -44 32 -21 2 5 9 3 16 -5 7 -8 8 -14 2 -14 -5 0 -10
-4 -10 -10 0 -5 13 -10 29 -10 33 0 41 14 41 71 0 38 -1 39 -34 39 -19 0 -37
-6 -40 -12 -5 -10 -7 -10 -12 0 -3 6 -21 12 -40 12 -33 0 -34 -1 -34 -40z
m130 0 c0 -11 -4 -20 -10 -20 -5 0 -10 9 -10 20 0 11 5 20 10 20 6 0 10 -9 10
-20z"/>
<path d="M2190 3530 c0 -29 4 -40 15 -40 11 0 15 11 15 40 0 29 -4 40 -15 40
-11 0 -15 -11 -15 -40z"/>
<path d="M2236 3558 c-8 -24 -1 -59 13 -68 26 -15 51 7 48 43 -2 27 -7 33 -30
35 -16 2 -29 -2 -31 -10z"/>
<path d="M2344 3556 c-3 -8 -4 -25 -2 -38 2 -19 9 -23 38 -23 33 0 35 2 35 35
0 32 -3 35 -33 38 -21 2 -34 -2 -38 -12z m46 -26 c0 -11 -4 -20 -10 -20 -5 0
-10 9 -10 20 0 11 5 20 10 20 6 0 10 -9 10 -20z"/>
<path d="M3480 3500 c0 -16 2 -30 4 -30 2 0 6 14 8 30 3 17 1 30 -4 30 -4 0
-8 -13 -8 -30z"/>
<path d="M3518 3500 c2 -16 6 -30 8 -30 2 0 4 14 4 30 0 17 -4 30 -8 30 -5 0
-7 -13 -4 -30z"/>
<path d="M3546 3514 c-9 -22 17 -49 39 -40 10 3 15 15 13 28 -4 29 -42 37 -52
12z m42 -11 c-5 -25 -28 -28 -28 -4 0 12 6 21 16 21 9 0 14 -7 12 -17z"/>
<path d="M3616 3505 c8 -34 12 -41 20 -33 3 4 -2 19 -10 35 l-16 28 6 -30z"/>
<path d="M3640 3514 c0 -8 5 -12 10 -9 6 3 10 -3 10 -14 0 -12 5 -21 10 -21
13 0 13 3 -2 35 -13 28 -28 33 -28 9z"/>
<path d="M3681 3514 c0 -11 3 -14 6 -6 3 7 2 16 -1 19 -3 4 -6 -2 -5 -13z"/>
<path d="M1538 3404 c-5 -4 -9 -21 -9 -38 -1 -17 -3 -23 -6 -13 -3 11 -14 17
-34 17 -27 0 -29 -2 -29 -40 0 -22 5 -40 10 -40 6 0 10 13 10 29 0 17 5 33 10
36 6 4 10 -8 10 -29 0 -31 3 -36 24 -36 20 0 25 6 28 32 4 46 28 49 28 4 0
-20 5 -36 10 -36 6 0 10 18 10 40 0 36 -3 40 -24 40 -17 0 -26 6 -28 21 -2 11
-6 17 -10 13z"/>
<path d="M1970 3391 c0 -14 -6 -21 -20 -21 -11 0 -23 -7 -27 -16 -5 -15 -7
-15 -15 0 -11 19 -54 21 -62 4 -5 -10 -7 -10 -12 0 -8 17 -51 15 -62 -4 -8
-15 -10 -15 -15 0 -4 10 -18 16 -37 16 -28 0 -30 -2 -30 -40 0 -48 17 -54 22
-7 2 17 8 32 13 32 6 0 11 -15 13 -32 3 -34 22 -47 22 -15 1 16 1 16 11 0 11
-20 59 -25 59 -7 0 8 4 8 13 2 24 -20 46 -22 59 -6 11 14 10 15 -9 9 -12 -4
-24 -2 -28 4 -11 18 44 11 64 -9 12 -12 27 -17 40 -14 18 5 21 13 21 59 0 29
-4 56 -10 59 -5 3 -10 -3 -10 -14z m-146 -46 c20 -15 20 -15 0 -30 -10 -8 -22
-15 -25 -15 -11 0 -19 29 -13 45 7 18 14 18 38 0z m66 5 c0 -5 -7 -10 -16 -10
-8 0 -12 5 -9 10 3 6 10 10 16 10 5 0 9 -4 9 -10z m75 -20 c0 -27 -20 -38 -28
-15 -8 20 3 47 17 42 6 -2 11 -14 11 -27z"/>
<path d="M2043 3393 c-4 -10 -11 -21 -17 -25 -7 -5 -7 -8 2 -8 7 0 12 -14 12
-35 0 -47 20 -45 21 3 1 20 1 43 0 50 -1 6 3 12 9 12 6 0 8 5 5 10 -10 15 -25
12 -32 -7z"/>
<path d="M810 3345 c0 -54 1 -55 28 -55 37 0 52 17 52 57 0 34 -21 53 -59 53
-19 0 -21 -6 -21 -55z m55 0 c0 -20 -6 -31 -17 -33 -15 -3 -18 4 -18 33 0 29
3 36 18 33 11 -2 17 -13 17 -33z"/>
<path d="M900 3390 c0 -5 5 -10 10 -10 6 0 10 5 10 10 0 6 -4 10 -10 10 -5 0
-10 -4 -10 -10z"/>
<path d="M2810 3345 c0 -30 5 -55 10 -55 6 0 10 25 10 55 0 30 -4 55 -10 55
-5 0 -10 -25 -10 -55z"/>
<path d="M2228 3378 c-2 -7 -2 -29 2 -48 4 -29 9 -35 30 -36 14 -1 30 -3 35
-4 35 -8 45 1 45 40 0 22 -4 40 -10 40 -5 0 -10 -16 -10 -36 0 -45 -24 -42
-28 4 -2 24 -8 32 -23 32 -10 0 -19 5 -19 10 0 14 -17 12 -22 -2z m42 -48 c0
-16 -4 -30 -10 -30 -5 0 -10 14 -10 30 0 17 5 30 10 30 6 0 10 -13 10 -30z"/>
<path d="M2578 3378 c-2 -7 -2 -29 2 -48 5 -35 6 -35 55 -35 l50 0 0 35 c0 34
-1 35 -40 36 -21 1 -41 6 -43 13 -5 15 -19 14 -24 -1z m42 -48 c0 -16 -4 -30
-10 -30 -5 0 -10 14 -10 30 0 17 5 30 10 30 6 0 10 -13 10 -30z m50 0 c0 -25
-18 -36 -26 -16 -8 21 3 49 16 41 5 -3 10 -15 10 -25z"/>
<path d="M3058 3378 c-2 -7 -2 -29 2 -48 3 -25 11 -35 25 -37 11 -2 14 0 8 3
-16 7 -17 64 -2 64 6 0 4 7 -5 15 -18 18 -23 19 -28 3z"/>
<path d="M900 3330 c0 -22 5 -40 10 -40 6 0 10 18 10 40 0 22 -4 40 -10 40 -5
0 -10 -18 -10 -40z"/>
<path d="M935 3360 c-8 -13 13 -40 31 -40 8 0 14 -4 14 -10 0 -5 -4 -10 -9
-10 -6 0 -13 5 -16 10 -8 13 -25 13 -25 0 0 -5 9 -14 21 -20 16 -9 25 -8 40 6
12 11 19 13 19 5 0 -18 52 -9 58 9 5 13 3 13 -11 2 -27 -23 -49 4 -28 36 7 12
12 12 30 1 11 -8 21 -22 21 -31 0 -10 9 -22 20 -28 17 -9 24 -6 44 15 23 24
24 24 29 5 8 -29 23 -24 36 11 13 39 14 49 2 49 -5 0 -12 -10 -15 -22 l-7 -23
-9 23 c-11 26 -32 30 -24 5 5 -17 5 -17 -6 0 -13 20 -50 23 -68 5 -9 -9 -12
-9 -12 0 0 7 -13 12 -30 12 -17 0 -30 -5 -30 -12 0 -9 -3 -9 -12 0 -15 15 -55
16 -63 2z m62 -27 c-7 -6 -46 10 -41 18 3 5 14 3 24 -3 11 -7 18 -13 17 -15z
m133 -3 c0 -10 -5 -22 -10 -25 -13 -8 -24 20 -16 41 8 20 26 9 26 -16z"/>
<path d="M1228 3344 c-11 -23 -10 -29 10 -45 23 -18 52 -16 52 3 0 6 -7 8 -15
5 -8 -4 -17 -2 -20 3 -4 6 5 10 19 10 16 0 26 -6 26 -15 0 -8 5 -15 10 -15 6
0 10 12 10 26 0 15 8 33 18 40 15 12 15 13 -10 14 -14 0 -29 -6 -31 -12 -4
-10 -6 -10 -6 0 -1 6 -12 12 -26 12 -18 0 -29 -8 -37 -26z m47 6 c3 -5 -1 -10
-10 -10 -9 0 -13 5 -10 10 3 6 8 10 10 10 2 0 7 -4 10 -10z"/>
<path d="M1387 3364 c-4 -4 -7 -20 -7 -35 0 -38 35 -58 59 -34 15 16 15 17 -6
11 -12 -4 -24 -2 -28 4 -4 6 4 10 20 10 22 0 26 4 23 23 -2 15 -11 23 -28 25
-14 2 -29 0 -33 -4z m38 -14 c3 -5 -1 -10 -10 -10 -9 0 -13 5 -10 10 3 6 8 10
10 10 2 0 7 -4 10 -10z"/>
<path d="M1619 3368 c-13 -61 3 -91 42 -81 16 5 19 13 17 42 -3 31 -7 36 -30
39 -16 2 -28 2 -29 0z m36 -18 c3 -5 -1 -10 -10 -10 -9 0 -13 5 -10 10 3 6 8
10 10 10 2 0 7 -4 10 -10z m5 -34 c0 -11 -19 -15 -25 -6 -3 5 1 10 9 10 9 0
16 -2 16 -4z"/>
<path d="M2082 3358 c-7 -7 -12 -20 -12 -29 0 -22 37 -49 56 -42 21 8 17 25
-5 18 -11 -3 -22 -1 -26 5 -4 6 4 10 18 10 31 0 38 9 26 31 -11 22 -39 25 -57
7z m38 -8 c0 -5 -7 -10 -16 -10 -8 0 -12 5 -9 10 3 6 10 10 16 10 5 0 9 -4 9
-10z"/>
<path d="M2154 3359 c-5 -9 -1 -11 14 -7 12 4 25 2 28 -3 3 -5 -4 -9 -16 -9
-11 0 -23 -7 -27 -16 -8 -22 21 -44 48 -37 16 5 19 13 17 42 -3 31 -7 36 -30
39 -14 2 -29 -2 -34 -9z m41 -49 c-3 -5 -10 -10 -16 -10 -5 0 -9 5 -9 10 0 6
7 10 16 10 8 0 12 -4 9 -10z"/>
<path d="M2350 3329 c0 -21 5 -39 10 -39 6 0 10 13 10 29 0 16 6 31 13 34 10
4 13 -2 10 -18 -5 -25 30 -57 53 -48 21 8 17 25 -5 18 -11 -3 -22 -1 -26 5 -4
6 4 10 18 10 31 0 38 9 27 30 -7 14 -22 18 -60 18 l-50 1 0 -40z m90 21 c0 -5
-7 -10 -16 -10 -8 0 -12 5 -9 10 3 6 10 10 16 10 5 0 9 -4 9 -10z"/>
<path d="M2475 3360 c-9 -14 13 -40 33 -40 13 0 13 -3 4 -12 -10 -10 -15 -10
-22 2 -5 8 -13 11 -17 6 -14 -14 28 -36 48 -25 26 13 24 27 -6 41 -14 6 -25
15 -25 20 0 12 14 10 28 -4 9 -9 12 -8 12 5 0 19 -44 24 -55 7z"/>
<path d="M2742 3358 c-25 -25 -7 -68 29 -68 10 0 21 5 25 11 4 7 0 9 -14 5
-11 -4 -23 -2 -27 4 -4 6 4 10 20 10 22 0 26 4 23 23 -3 25 -36 35 -56 15z
m38 -8 c0 -5 -7 -10 -16 -10 -8 0 -12 5 -9 10 3 6 10 10 16 10 5 0 9 -4 9 -10z"/>
<path d="M2844 3356 c-3 -8 -4 -25 -2 -38 3 -26 43 -38 62 -18 8 9 6 11 -11 6
-12 -4 -24 -2 -28 4 -4 6 4 10 19 10 18 0 26 6 27 18 1 9 6 2 12 -16 12 -38
26 -37 41 4 8 20 17 29 31 28 37 -3 40 -6 15 -13 -39 -11 -33 -45 8 -49 33 -3
33 -3 30 35 -3 37 -4 38 -45 39 -37 2 -43 -1 -51 -25 l-10 -26 -6 26 c-6 22
-13 26 -47 27 -26 1 -42 -3 -45 -12z m46 -6 c0 -5 -7 -10 -16 -10 -8 0 -12 5
-9 10 3 6 10 10 16 10 5 0 9 -4 9 -10z m135 -40 c-3 -5 -10 -10 -16 -10 -5 0
-9 5 -9 10 0 6 7 10 16 10 8 0 12 -4 9 -10z"/>
<path d="M3112 3358 c-25 -25 -7 -68 29 -68 10 0 21 5 25 11 4 7 0 9 -14 5
-11 -4 -23 -2 -27 4 -4 6 4 10 20 10 22 0 26 4 23 23 -3 25 -36 35 -56 15z
m38 -8 c0 -5 -7 -10 -16 -10 -8 0 -12 5 -9 10 3 6 10 10 16 10 5 0 9 -4 9 -10z"/>
<path d="M3217 3333 c11 -28 12 -42 4 -55 -9 -14 -8 -18 3 -18 8 0 21 21 30
47 19 54 19 63 6 63 -5 0 -10 -9 -10 -20 0 -11 -4 -20 -9 -20 -5 0 -11 9 -14
20 -3 11 -10 20 -16 20 -6 0 -4 -15 6 -37z"/>
<path d="M3280 3350 c-15 -28 4 -60 35 -60 26 0 40 28 30 60 -4 13 -15 20 -30
20 -14 0 -29 -9 -35 -20z m45 -20 c0 -13 -6 -25 -12 -27 -16 -6 -27 21 -19 43
9 23 31 11 31 -16z"/>
<path d="M3362 3333 c3 -33 7 -38 31 -41 26 -3 27 -2 26 40 -2 42 -2 42 -8 9
-8 -48 -31 -53 -31 -7 0 20 -5 36 -11 36 -6 0 -9 -16 -7 -37z"/>
<path d="M3441 3328 c2 -34 3 -37 6 -13 3 16 12 35 21 42 15 11 15 12 -5 13
-21 0 -23 -5 -22 -42z"/>
<path d="M1798 3211 c-15 -21 -12 -101 3 -101 5 0 9 16 9 35 0 21 5 35 13 35
9 0 8 3 -2 9 -9 6 -10 11 -2 15 6 4 11 11 11 17 0 16 -18 10 -32 -10z"/>
<path d="M2407 3223 c-11 -10 -8 -113 3 -113 6 0 10 27 10 60 0 61 -1 65 -13
53z"/>
<path d="M3338 3211 c-15 -21 -12 -101 3 -101 5 0 9 16 9 35 0 24 5 35 15 35
10 0 15 -11 15 -35 0 -47 20 -45 21 3 1 20 1 43 0 50 -1 6 3 12 9 12 6 0 9 4
5 10 -8 13 -35 1 -35 -16 0 -8 -7 -14 -15 -14 -18 0 -20 17 -3 22 9 3 9 6 1
11 -7 4 -18 -1 -25 -12z"/>
<path d="M1230 3177 c0 -50 -7 -62 -27 -45 -7 6 -17 8 -21 4 -14 -14 29 -36
49 -25 15 7 19 21 19 59 0 28 -4 50 -10 50 -5 0 -10 -19 -10 -43z"/>
<path d="M2790 3165 c0 -30 5 -55 10 -55 6 0 10 25 10 55 0 30 -4 55 -10 55
-5 0 -10 -25 -10 -55z"/>
<path d="M3130 3165 c0 -59 17 -76 22 -23 4 46 28 49 28 4 0 -20 5 -36 11 -36
6 0 9 16 7 38 -2 30 -7 38 -25 40 -13 2 -23 10 -23 18 0 8 -4 14 -10 14 -5 0
-10 -25 -10 -55z"/>
<path d="M3540 3180 c0 -22 5 -40 10 -40 6 0 10 18 10 40 0 22 -4 40 -10 40
-5 0 -10 -18 -10 -40z"/>
<path d="M815 3175 c-3 -8 -7 -22 -10 -30 -7 -22 21 -43 49 -38 19 4 26 1 26
-11 0 -9 5 -16 10 -16 6 0 10 7 10 15 0 8 6 12 14 9 7 -3 21 2 30 11 15 15 16
14 16 -9 0 -14 5 -26 10 -26 6 0 10 7 10 15 0 8 6 12 14 9 8 -3 20 1 27 9 12
12 17 12 36 -1 19 -11 26 -12 38 -2 22 19 18 39 -10 46 -14 3 -22 10 -19 16 3
5 12 4 20 -3 16 -13 30 -6 19 10 -8 15 -48 14 -63 -1 -9 -9 -12 -9 -12 0 0 16
-67 16 -73 0 -4 -10 -6 -10 -6 0 -1 7 -15 12 -35 12 -33 0 -35 -2 -39 -37 l-4
-38 -1 38 c-2 33 -5 37 -27 37 -14 0 -28 -7 -30 -15z m35 -5 c0 -5 -7 -10 -16
-10 -8 0 -12 5 -9 10 3 6 10 10 16 10 5 0 9 -4 9 -10z m84 -5 c7 -18 -2 -45
-15 -45 -13 0 -22 27 -15 45 3 8 10 15 15 15 5 0 11 -7 15 -15z m80 0 c7 -18
-2 -45 -15 -45 -13 0 -22 27 -15 45 3 8 10 15 15 15 5 0 11 -7 15 -15z m76
-37 c0 -12 -13 -9 -32 6 -26 19 -22 26 7 13 14 -7 25 -15 25 -19z m-240 8 c0
-3 -4 -8 -10 -11 -5 -3 -10 -1 -10 4 0 6 5 11 10 11 6 0 10 -2 10 -4z"/>
<path d="M1264 3176 c-3 -8 -4 -25 -2 -38 3 -26 40 -37 64 -18 10 9 14 9 14 1
0 -6 7 -11 15 -11 11 0 15 11 15 40 0 29 -4 40 -15 40 -8 0 -15 -5 -15 -12 0
-9 -3 -9 -12 0 -17 17 -57 15 -64 -2z m50 -11 c7 -18 -2 -45 -15 -45 -13 0
-22 27 -15 45 3 8 10 15 15 15 5 0 11 -7 15 -15z"/>
<path d="M1380 3150 c0 -22 5 -40 10 -40 6 0 10 16 10 35 0 19 5 35 10 35 6 0
10 -16 10 -35 0 -19 5 -35 10 -35 6 0 10 18 10 40 0 38 -2 40 -30 40 -28 0
-30 -2 -30 -40z"/>
<path d="M1490 3150 c0 -22 5 -40 10 -40 6 0 10 13 10 29 0 17 4 32 9 35 10 7
21 -17 21 -45 0 -10 5 -19 10 -19 6 0 10 5 10 12 0 9 3 9 12 0 19 -19 56 -14
63 8 15 48 -29 81 -64 48 -11 -10 -14 -10 -18 0 -3 6 -18 12 -34 12 -27 0 -29
-2 -29 -40z m125 0 c0 -27 -22 -39 -31 -16 -8 22 3 49 19 43 6 -2 12 -14 12
-27z"/>
<path d="M1644 3173 c15 -55 18 -63 26 -63 6 0 13 12 17 27 l6 28 10 -28 c5
-15 12 -27 17 -27 8 0 11 8 26 63 8 25 -12 21 -21 -5 l-8 -23 -4 23 c-6 28
-21 28 -32 0 l-8 -23 -7 23 c-9 26 -30 30 -22 5z"/>
<path d="M1842 3178 c-27 -27 -6 -68 34 -68 25 0 39 28 29 60 -7 22 -44 27
-63 8z m43 -28 c0 -27 -22 -39 -31 -16 -8 22 3 49 19 43 6 -2 12 -14 12 -27z"/>
<path d="M1920 3150 c0 -22 5 -40 10 -40 6 0 10 13 10 28 0 15 5 33 12 40 9 9
7 12 -10 12 -19 0 -22 -5 -22 -40z"/>
<path d="M2007 3183 c-2 -4 -7 -20 -11 -35 -7 -31 14 -49 46 -40 29 7 22 76
-9 80 -11 2 -23 0 -26 -5z m33 -13 c0 -5 -7 -10 -16 -10 -8 0 -12 5 -9 10 3 6
10 10 16 10 5 0 9 -4 9 -10z m0 -34 c0 -11 -19 -15 -25 -6 -3 5 1 10 9 10 9 0
16 -2 16 -4z"/>
<path d="M2070 3151 c0 -48 17 -55 22 -9 4 46 28 49 28 4 0 -20 5 -36 11 -36
6 0 9 16 7 38 -3 34 -6 37 -35 40 -32 3 -33 2 -33 -37z"/>
<path d="M2191 3176 c-18 -21 -6 -62 19 -69 11 -3 22 -1 25 3 3 4 14 6 25 3
12 -3 20 0 20 7 0 10 3 10 15 0 20 -16 32 -5 16 14 -9 11 -10 20 -1 35 12 23
1 28 -18 9 -9 -9 -12 -9 -12 0 0 7 -4 12 -9 12 -5 0 -8 -14 -7 -31 1 -27 -3
-32 -26 -34 -15 -2 -30 1 -33 6 -4 5 6 9 20 9 22 0 26 4 23 23 -4 27 -39 35
-57 13z m39 -6 c0 -5 -7 -10 -16 -10 -8 0 -12 5 -9 10 3 6 10 10 16 10 5 0 9
-4 9 -10z"/>
<path d="M2330 3171 c-15 -29 4 -63 32 -59 12 2 24 10 26 18 5 13 3 13 -11 2
-28 -24 -48 4 -28 37 8 13 12 13 27 0 15 -12 17 -12 12 1 -7 24 -45 24 -58 1z"/>
<path d="M2430 3155 c0 -37 20 -56 51 -48 15 4 19 15 19 44 0 22 -4 39 -10 39
-5 0 -10 -16 -10 -36 0 -45 -24 -42 -28 4 -4 43 -22 41 -22 -3z"/>
<path d="M2515 3180 c-9 -14 13 -40 33 -40 13 0 13 -3 4 -12 -10 -10 -15 -10
-22 2 -5 8 -13 11 -17 6 -11 -10 25 -36 42 -30 26 10 25 34 0 46 -14 6 -25 15
-25 20 0 12 14 10 28 -4 9 -9 12 -8 12 5 0 19 -44 24 -55 7z"/>
<path d="M2593 3150 c0 -25 2 -35 4 -22 2 12 2 32 0 45 -2 12 -4 2 -4 -23z"/>
<path d="M2610 3185 c0 -12 29 -75 35 -75 6 0 35 63 35 75 0 3 -4 5 -10 5 -5
0 -13 -12 -17 -27 l-6 -28 -10 28 c-7 23 -27 39 -27 22z"/>
<path d="M2691 3176 c-21 -25 -6 -66 24 -66 13 0 27 5 31 11 4 7 0 9 -14 5
-11 -4 -23 -2 -27 4 -4 6 4 10 20 10 22 0 26 4 23 23 -4 27 -39 35 -57 13z
m39 -6 c0 -5 -7 -10 -16 -10 -8 0 -12 5 -9 10 3 6 10 10 16 10 5 0 9 -4 9 -10z"/>
<path d="M2830 3180 c0 -7 7 -10 15 -7 8 4 17 2 20 -3 3 -5 -5 -10 -17 -12
-15 -2 -23 -10 -23 -23 0 -15 8 -21 33 -23 33 -3 33 -3 30 35 -3 33 -7 38 -30
41 -17 2 -28 -2 -28 -8z m32 -52 c-6 -6 -15 -8 -19 -4 -4 4 -1 11 7 16 19 12
27 3 12 -12z"/>
<path d="M2902 3153 c3 -35 6 -38 36 -41 31 -3 32 -2 32 37 0 48 -17 55 -22 9
-4 -46 -28 -49 -28 -4 0 20 -5 36 -11 36 -6 0 -9 -16 -7 -37z"/>
<path d="M2980 3150 c0 -22 5 -40 10 -40 6 0 10 16 10 36 0 45 24 42 28 -4 3
-33 22 -45 22 -15 0 15 1 15 13 -1 15 -21 48 -18 55 4 4 13 3 13 -11 2 -19
-16 -37 -8 -37 18 0 26 18 34 37 18 14 -11 15 -11 11 2 -7 22 -40 25 -55 5
-11 -17 -13 -17 -19 -2 -4 11 -17 17 -35 17 -27 0 -29 -3 -29 -40z"/>
<path d="M3244 3176 c-12 -32 0 -61 28 -64 32 -4 50 22 37 56 -10 25 -56 31
-65 8z m50 -11 c7 -18 -2 -45 -15 -45 -13 0 -22 27 -15 45 3 8 10 15 15 15 5
0 11 -7 15 -15z"/>
<path d="M3420 3171 c-8 -15 -8 -27 0 -41 11 -20 44 -27 54 -11 4 5 -2 7 -13
4 -10 -3 -22 0 -25 6 -5 7 3 11 19 11 22 0 26 4 23 23 -4 30 -43 35 -58 8z
m45 -1 c3 -5 -3 -10 -15 -10 -12 0 -18 5 -15 10 3 6 10 10 15 10 5 0 12 -4 15
-10z"/>
<path d="M3490 3150 c0 -22 5 -40 10 -40 6 0 10 13 10 28 0 15 5 33 12 40 9 9
7 12 -10 12 -19 0 -22 -5 -22 -40z"/>
<path d="M1120 3120 c0 -5 5 -10 10 -10 6 0 10 5 10 10 0 6 -4 10 -10 10 -5 0
-10 -4 -10 -10z"/>
<path d="M907 2773 c-4 -3 -7 -27 -8 -52 l0 -46 -17 44 c-22 56 -39 62 -56 19
-26 -64 -28 -78 -12 -78 9 0 16 5 16 10 0 6 9 10 20 10 11 0 20 -4 20 -10 0
-5 14 -10 30 -10 l30 0 0 60 c0 55 -6 70 -23 53z m-47 -63 c0 -5 -4 -10 -10
-10 -5 0 -10 5 -10 10 0 6 5 10 10 10 6 0 10 -4 10 -10z"/>
<path d="M940 2721 c0 -55 2 -59 26 -64 15 -2 31 2 40 11 12 12 18 12 23 3 4
-7 19 -12 32 -12 13 1 34 1 47 1 18 0 22 6 22 30 0 20 5 30 15 30 9 0 15 -9
15 -23 0 -28 18 -47 36 -40 11 4 12 9 3 19 -6 8 -9 23 -6 35 3 11 3 27 0 35
-6 16 -33 19 -33 4 0 -5 -13 -10 -29 -10 -16 0 -32 -6 -34 -12 -4 -10 -6 -10
-6 0 -1 6 -14 12 -30 12 -16 0 -32 -6 -35 -12 -5 -10 -7 -10 -12 0 -3 6 -14
12 -25 12 -12 0 -19 7 -19 20 0 11 -7 20 -15 20 -12 0 -15 -13 -15 -59z m50
-21 c0 -11 -4 -20 -10 -20 -5 0 -10 9 -10 20 0 11 5 20 10 20 6 0 10 -9 10
-20z m103 -17 c-7 -2 -21 -2 -30 0 -10 3 -4 5 12 5 17 0 24 -2 18 -5z"/>
<path d="M1330 2720 c0 -33 4 -60 10 -60 6 0 10 27 10 60 0 33 -4 60 -10 60
-6 0 -10 -27 -10 -60z"/>
<path d="M1250 2715 c0 -30 5 -55 10 -55 6 0 10 9 10 20 0 15 7 20 25 20 14 0
25 5 25 10 0 6 -11 10 -25 10 -16 0 -25 6 -25 15 0 9 9 15 25 15 14 0 25 5 25
10 0 6 -16 10 -35 10 l-35 0 0 -55z"/>
<path d="M1364 2726 c-3 -8 -4 -25 -2 -38 2 -19 9 -23 38 -23 33 0 35 2 35 35
0 32 -3 35 -33 38 -21 2 -34 -2 -38 -12z m46 -26 c0 -11 -4 -20 -10 -20 -5 0
-10 9 -10 20 0 11 5 20 10 20 6 0 10 -9 10 -20z"/>
<path d="M1450 2700 c0 -45 17 -55 22 -13 2 14 9 29 17 31 8 3 11 0 7 -6 -17
-28 34 -72 60 -51 9 7 18 7 33 0 11 -6 26 -8 35 -5 18 7 28 31 17 39 -5 3 -7
14 -4 25 5 17 0 20 -27 20 -29 0 -32 -2 -28 -25 4 -20 1 -26 -18 -31 -13 -3
-29 -4 -36 -1 -7 3 0 6 15 6 24 1 28 5 25 24 -3 20 -9 22 -60 24 l-58 3 0 -40z"/>
<path d="M3482 2670 c0 -19 2 -27 5 -17 2 9 2 25 0 35 -3 9 -5 1 -5 -18z"/>
<path d="M3518 2670 c2 -16 6 -30 8 -30 2 0 4 14 4 30 0 17 -4 30 -8 30 -5 0
-7 -13 -4 -30z"/>
<path d="M3546 2684 c-5 -14 -4 -15 9 -4 17 14 19 20 6 20 -5 0 -12 -7 -15
-16z"/>
<path d="M3588 2673 c4 -23 2 -25 -18 -20 -16 4 -20 3 -12 -5 6 -6 18 -8 26
-5 17 7 22 42 7 51 -4 3 -6 -6 -3 -21z"/>
<path d="M3616 2680 c3 -14 10 -29 15 -34 14 -16 10 6 -7 34 l-15 25 7 -25z"/>
<path d="M3647 2693 c-4 -3 -7 -11 -7 -17 0 -6 5 -5 12 2 6 6 9 14 7 17 -3 3
-9 2 -12 -2z"/>
<path d="M3681 2684 c0 -11 3 -14 6 -6 3 7 2 16 -1 19 -3 4 -6 -2 -5 -13z"/>
<path d="M3660 2661 c0 -5 5 -13 10 -16 6 -3 10 -2 10 4 0 5 -4 13 -10 16 -5
3 -10 2 -10 -4z"/>
<path d="M760 2526 l0 -54 120 0 c99 0 120 2 120 15 0 10 -6 12 -20 8 -16 -5
-20 -2 -20 15 0 17 4 20 20 15 14 -5 20 -2 20 9 0 11 -9 16 -30 16 -25 0 -31
-5 -39 -32 l-9 -33 -1 33 c-1 29 -4 32 -31 32 -19 0 -30 -5 -30 -14 0 -9 8
-12 23 -9 21 4 20 4 -3 -9 -30 -18 -31 -17 -39 24 -6 29 -11 33 -44 36 l-37 3
0 -55z m55 24 c3 -5 -1 -10 -9 -10 -9 0 -16 5 -16 10 0 6 4 10 9 10 6 0 13 -4
16 -10z m5 -50 c0 -5 -7 -10 -15 -10 -8 0 -15 5 -15 10 0 6 7 10 15 10 8 0 15
-4 15 -10z"/>
<path d="M1010 2525 c0 -30 5 -55 10 -55 6 0 10 5 10 12 0 9 3 9 12 0 7 -7 25
-12 40 -12 24 0 28 4 28 30 0 20 5 30 15 30 10 0 15 -10 15 -30 0 -28 3 -30
35 -30 34 0 35 1 35 40 0 45 -17 55 -22 13 -4 -39 -28 -42 -28 -4 0 31 0 31
-53 31 -29 0 -58 -5 -65 -12 -9 -9 -12 -6 -12 15 0 15 -4 27 -10 27 -5 0 -10
-25 -10 -55z m70 -17 c-1 -28 -2 -30 -11 -15 -6 10 -8 25 -5 33 9 24 16 16 16
-18z"/>
<path d="M1290 2540 c0 -38 -1 -39 -20 -28 -17 10 -18 14 -5 16 27 6 16 23
-12 20 -25 -3 -28 -7 -29 -40 -1 -35 1 -38 27 -38 15 0 30 6 32 13 4 10 6 10
6 0 1 -7 8 -13 16 -13 10 0 15 10 15 30 0 17 5 30 10 30 6 0 10 -13 10 -30 0
-21 5 -30 16 -30 12 0 14 9 12 38 -2 30 -7 38 -25 40 -13 2 -23 10 -23 18 0 8
-7 14 -15 14 -11 0 -15 -11 -15 -40z"/>
<path d="M1400 2515 c0 -30 5 -55 10 -55 6 0 10 15 10 33 l1 32 14 -32 c17
-40 30 -42 43 -5 l10 27 1 -27 c2 -53 21 -28 21 27 0 30 -4 55 -10 55 -5 0
-17 -19 -27 -42 l-19 -41 -13 41 c-21 61 -41 55 -41 -13z"/>
<path d="M2130 2560 c0 -5 5 -10 10 -10 6 0 10 5 10 10 0 6 -4 10 -10 10 -5 0
-10 -4 -10 -10z"/>
<path d="M2470 2530 c0 -22 5 -40 10 -40 6 0 10 18 10 40 0 22 -4 40 -10 40
-5 0 -10 -18 -10 -40z"/>
<path d="M2540 2515 c0 -54 0 -55 30 -55 31 0 50 22 50 58 0 25 -31 52 -58 52
-20 0 -22 -5 -22 -55z m58 3 c2 -19 -3 -30 -17 -38 -20 -10 -21 -8 -21 30 0
34 3 41 18 38 10 -2 18 -14 20 -30z"/>
<path d="M2630 2560 c0 -5 5 -10 10 -10 6 0 10 5 10 10 0 6 -4 10 -10 10 -5 0
-10 -4 -10 -10z"/>
<path d="M2430 2550 c0 -5 -9 -10 -20 -10 -16 0 -20 -7 -20 -36 0 -46 -23 -41
-31 7 -6 34 -6 34 -8 -8 -1 -41 0 -43 29 -43 28 0 30 3 30 35 0 19 5 35 10 35
6 0 10 -16 10 -35 0 -21 5 -35 13 -35 10 0 13 32 8 93 -1 11 -21 8 -21 -3z"/>
<path d="M1532 2528 c-7 -7 -12 -20 -12 -29 0 -22 37 -49 56 -42 21 8 17 25
-5 18 -11 -3 -22 -1 -26 5 -4 6 4 10 18 10 31 0 38 9 26 31 -11 22 -39 25 -57
7z m38 -8 c0 -5 -7 -10 -16 -10 -8 0 -12 5 -9 10 3 6 10 10 16 10 5 0 9 -4 9
-10z"/>
<path d="M1605 2530 c-9 -14 13 -40 33 -40 13 0 14 -2 3 -12 -11 -10 -14 -10
-18 0 -5 14 -23 16 -23 2 0 -5 9 -14 20 -20 14 -8 22 -7 32 4 11 11 16 11 34
0 17 -12 23 -12 39 0 15 11 21 11 32 1 7 -7 22 -11 33 -8 17 5 20 12 18 42 -3
31 -7 36 -27 36 -13 0 -26 -7 -29 -15 -4 -12 -2 -13 9 -2 15 13 29 16 29 5 0
-5 -12 -13 -25 -20 -20 -9 -31 -9 -50 1 -14 7 -22 16 -18 19 3 4 12 2 20 -5
16 -13 31 -2 16 13 -15 15 -58 7 -58 -11 0 -8 10 -19 23 -25 25 -11 29 -25 7
-25 -8 0 -15 4 -15 8 0 5 -16 14 -35 22 -19 8 -35 17 -35 22 0 12 14 10 28 -4
9 -9 12 -8 12 5 0 19 -44 24 -55 7z m185 -50 c0 -5 -4 -10 -9 -10 -6 0 -13 5
-16 10 -3 6 1 10 9 10 9 0 16 -4 16 -10z"/>
<path d="M1826 2524 c-3 -9 -6 -22 -6 -29 0 -18 29 -47 41 -40 5 4 9 1 9 -5 0
-7 -8 -9 -20 -5 -12 4 -20 2 -20 -5 0 -6 12 -10 28 -8 25 3 27 7 30 56 3 52 3
52 -26 52 -18 0 -32 -6 -36 -16z m44 -24 c0 -31 -16 -41 -26 -15 -8 19 2 45
16 45 5 0 10 -13 10 -30z"/>
<path d="M1900 2500 c0 -22 5 -40 10 -40 6 0 10 18 10 40 0 22 -4 40 -10 40
-5 0 -10 -18 -10 -40z"/>
<path d="M1941 2498 c2 -43 2 -43 8 -9 8 48 31 53 31 7 0 -20 5 -36 10 -36 6
0 10 18 10 40 0 38 -2 40 -30 40 -29 0 -30 -2 -29 -42z"/>
<path d="M2015 2520 c-9 -30 4 -60 26 -60 10 0 19 -5 19 -11 0 -6 -9 -8 -20
-4 -12 4 -20 2 -20 -5 0 -6 12 -10 28 -8 25 3 27 7 30 56 3 52 3 52 -27 52
-21 0 -32 -6 -36 -20z m45 -20 c0 -31 -16 -41 -26 -15 -8 19 2 45 16 45 5 0
10 -13 10 -30z"/>
<path d="M2130 2500 c0 -22 5 -40 10 -40 6 0 10 18 10 40 0 22 -4 40 -10 40
-5 0 -10 -18 -10 -40z"/>
<path d="M2163 2524 c-4 -10 -2 -19 3 -21 22 -8 38 -22 31 -29 -3 -4 -14 -1
-23 7 -15 12 -17 12 -12 -1 2 -8 17 -16 31 -18 21 -3 27 1 27 17 0 11 -9 22
-20 26 -11 3 -20 11 -20 16 0 13 14 11 29 -3 11 -11 13 -10 9 2 -7 22 -47 25
-55 4z"/>
<path d="M2270 2525 c-26 -32 13 -81 48 -59 34 22 22 74 -18 74 -10 0 -23 -7
-30 -15z m45 -25 c0 -13 -6 -25 -12 -27 -16 -6 -27 21 -19 43 9 23 31 11 31
-16z"/>
<path d="M2630 2500 c0 -22 5 -40 10 -40 6 0 10 18 10 40 0 22 -4 40 -10 40
-5 0 -10 -18 -10 -40z"/>
<path d="M2665 2530 c-9 -14 13 -40 33 -40 12 0 13 -3 4 -12 -8 -8 -15 -8 -28
3 -15 12 -17 12 -12 -1 2 -8 17 -16 31 -18 21 -3 27 1 27 17 0 11 -9 22 -20
26 -11 3 -20 11 -20 16 0 13 14 11 29 -3 11 -11 13 -10 9 2 -6 18 -43 25 -53
10z"/>
<path d="M2735 2520 c-11 -35 4 -62 33 -58 14 2 28 10 30 18 5 13 3 13 -11 2
-19 -16 -37 -8 -37 18 0 24 20 37 31 19 4 -7 11 -10 14 -7 12 12 -6 28 -30 28
-15 0 -26 -7 -30 -20z"/>
<path d="M2814 2526 c-12 -32 0 -61 28 -64 29 -4 44 22 33 58 -7 24 -53 28
-61 6z m44 -20 c2 -10 -1 -23 -7 -29 -16 -16 -34 6 -26 33 8 24 28 22 33 -4z"/>
<path d="M2894 2503 c15 -45 31 -52 40 -19 3 13 9 31 12 40 3 9 2 16 -4 16 -5
0 -13 -12 -17 -27 l-7 -28 -10 28 c-5 15 -14 27 -18 27 -5 0 -3 -17 4 -37z"/>
<path d="M2962 2528 c-25 -25 -7 -68 29 -68 10 0 21 5 25 11 4 7 0 9 -14 5
-11 -4 -23 -2 -27 4 -4 6 4 10 20 10 22 0 26 4 23 23 -3 25 -36 35 -56 15z
m38 -8 c0 -5 -7 -10 -16 -10 -8 0 -12 5 -9 10 3 6 10 10 16 10 5 0 9 -4 9 -10z"/>
<path d="M3030 2500 c0 -22 5 -40 10 -40 6 0 10 13 10 28 0 15 5 33 12 40 9 9
7 12 -10 12 -19 0 -22 -5 -22 -40z"/>
<path d="M2470 2470 c0 -5 5 -10 10 -10 6 0 10 5 10 10 0 6 -4 10 -10 10 -5 0
-10 -4 -10 -10z"/>
<path d="M960 2340 c0 -63 16 -84 22 -27 2 17 8 32 13 32 6 0 11 -15 13 -32 2
-18 8 -33 13 -33 6 0 9 17 7 38 -2 30 -7 38 -25 40 -15 2 -23 10 -23 23 0 10
-4 19 -10 19 -6 0 -10 -27 -10 -60z"/>
<path d="M1393 2380 c-3 -11 -13 -20 -23 -20 -10 0 -21 -6 -23 -12 -4 -10 -8
-10 -15 0 -14 20 -54 10 -63 -16 -6 -17 -4 -27 11 -42 18 -18 50 -18 50 1 0 4
-6 6 -14 3 -8 -3 -17 -1 -21 5 -11 20 40 12 57 -8 11 -13 24 -18 37 -14 18 5
21 13 21 64 0 59 -7 76 -17 39z m-78 -40 c3 -5 -1 -10 -10 -10 -9 0 -13 5 -10
10 3 6 8 10 10 10 2 0 7 -4 10 -10z m75 -20 c0 -31 -16 -41 -26 -15 -8 19 2
45 16 45 5 0 10 -13 10 -30z"/>
<path d="M1468 2381 c-15 -21 -12 -101 3 -101 5 0 9 16 9 35 0 44 18 46 22 4
4 -39 39 -57 60 -32 11 14 10 15 -9 9 -12 -4 -24 -2 -28 4 -4 6 4 10 20 10 22
0 26 4 23 23 -2 18 -10 22 -41 23 -39 1 -62 13 -39 21 6 3 12 9 12 14 0 16
-18 10 -32 -10z m82 -41 c0 -5 -7 -10 -16 -10 -8 0 -12 5 -9 10 3 6 10 10 16
10 5 0 9 -4 9 -10z"/>
<path d="M2243 2340 c0 -36 2 -50 4 -32 2 17 2 47 0 65 -2 17 -4 3 -4 -33z"/>
<path d="M1660 2371 c0 -6 -17 -11 -37 -13 -35 -3 -38 -5 -40 -37 -3 -39 7
-50 41 -44 18 4 21 10 18 39 -3 21 0 34 7 34 6 0 11 -16 11 -35 0 -21 5 -35
13 -35 10 0 13 32 8 93 -1 10 -21 9 -21 -2z m-40 -31 c0 -5 -7 -10 -16 -10 -8
0 -12 5 -9 10 3 6 10 10 16 10 5 0 9 -4 9 -10z m0 -40 c0 -5 -4 -10 -9 -10 -6
0 -13 5 -16 10 -3 6 1 10 9 10 9 0 16 -4 16 -10z"/>
<path d="M2002 2365 c-7 -9 -8 -15 -2 -15 5 0 10 -16 10 -35 0 -21 5 -35 13
-35 10 0 13 32 8 93 -1 11 -15 8 -29 -8z"/>
<path d="M2488 2369 c-7 -21 5 -89 16 -89 9 0 12 35 7 93 -1 11 -19 8 -23 -4z"/>
<path d="M810 2341 c-12 -23 -4 -48 19 -60 19 -10 41 -4 41 11 0 6 -7 8 -15 5
-8 -4 -17 -2 -20 3 -4 6 5 10 19 10 16 0 26 -6 26 -15 0 -29 19 -14 22 18 2
17 8 32 13 32 6 0 11 -15 13 -32 2 -18 8 -33 13 -33 6 0 9 17 7 38 -3 33 -6
37 -32 40 -16 2 -32 -2 -37 -10 -7 -10 -9 -10 -9 0 0 20 -48 14 -60 -7z m45
-1 c3 -5 -1 -10 -10 -10 -9 0 -13 5 -10 10 3 6 8 10 10 10 2 0 7 -4 10 -10z"/>
<path d="M1047 2353 c-8 -18 -6 -67 4 -73 5 -4 21 -5 35 -2 24 4 32 31 18 66
-6 16 -50 22 -57 9z m33 -13 c0 -5 -7 -10 -16 -10 -8 0 -12 5 -9 10 3 6 10 10
16 10 5 0 9 -4 9 -10z m0 -40 c0 -5 -4 -10 -10 -10 -5 0 -10 5 -10 10 0 6 5
10 10 10 6 0 10 -4 10 -10z"/>
<path d="M1120 2320 c0 -22 5 -40 10 -40 6 0 10 16 10 35 0 19 5 35 10 35 6 0
10 -16 10 -35 0 -19 5 -35 10 -35 6 0 10 18 10 40 0 38 -2 40 -30 40 -28 0
-30 -2 -30 -40z"/>
<path d="M1195 2340 c-11 -35 4 -62 33 -58 14 2 28 10 30 18 5 13 3 13 -11 2
-19 -16 -37 -8 -37 18 0 24 20 37 31 19 4 -7 11 -10 14 -7 12 12 -6 28 -30 28
-15 0 -26 -7 -30 -20z"/>
<path d="M1700 2326 c0 -39 17 -57 48 -49 18 4 22 13 22 44 0 47 -17 52 -22 7
-4 -46 -28 -49 -28 -4 0 20 -4 36 -10 36 -5 0 -10 -15 -10 -34z"/>
<path d="M1780 2320 c0 -22 5 -40 10 -40 6 0 10 13 10 28 0 15 5 33 12 40 9 9
7 12 -10 12 -19 0 -22 -5 -22 -40z"/>
<path d="M1824 2336 c-3 -14 -4 -33 0 -41 6 -17 52 -20 62 -4 4 7 0 9 -14 5
-11 -4 -23 -2 -27 4 -4 6 4 10 20 10 22 0 26 4 23 23 -2 16 -11 23 -30 25 -22
3 -29 -2 -34 -22z m46 4 c0 -5 -7 -10 -16 -10 -8 0 -12 5 -9 10 3 6 10 10 16
10 5 0 9 -4 9 -10z"/>
<path d="M1900 2341 c0 -11 9 -23 20 -26 11 -3 20 -11 20 -16 0 -13 -14 -11
-28 3 -9 9 -12 8 -12 -5 0 -23 48 -23 57 0 4 9 2 18 -3 20 -23 8 -38 23 -31
30 5 4 12 1 17 -7 5 -8 12 -11 15 -8 12 12 -6 28 -31 28 -17 0 -24 -6 -24 -19z"/>
<path d="M2052 2348 c-27 -27 -6 -68 34 -68 25 0 39 28 29 60 -7 22 -44 27
-63 8z m43 -28 c0 -13 -6 -25 -12 -27 -16 -6 -27 21 -19 43 9 23 31 11 31 -16z"/>
<path d="M2164 2346 c-3 -8 -4 -25 -2 -38 3 -26 43 -38 62 -18 8 9 6 11 -11 6
-12 -4 -24 -2 -28 4 -4 6 4 10 19 10 27 0 30 7 20 34 -8 20 -53 21 -60 2z m41
-6 c3 -5 -1 -10 -10 -10 -9 0 -13 5 -10 10 3 6 8 10 10 10 2 0 7 -4 10 -10z"/>
<path d="M2270 2340 c-15 -28 4 -60 35 -60 14 0 25 4 25 9 0 5 -8 7 -19 4 -10
-3 -22 0 -25 6 -5 7 2 11 17 11 31 0 38 9 26 31 -13 25 -46 24 -59 -1z m45 0
c3 -5 -3 -10 -15 -10 -12 0 -18 5 -15 10 3 6 10 10 15 10 5 0 12 -4 15 -10z"/>
<path d="M2340 2352 c0 -19 22 -72 30 -72 11 0 34 70 26 78 -4 3 -9 -4 -13
-16 -6 -25 -23 -30 -23 -8 0 8 -4 18 -10 21 -5 3 -10 2 -10 -3z"/>
<path d="M2415 2350 c-5 -9 -1 -10 14 -5 11 3 21 2 21 -3 0 -5 -9 -12 -20 -15
-12 -3 -20 -14 -20 -26 0 -17 6 -21 31 -21 29 0 30 2 27 38 -2 29 -8 38 -25
40 -11 2 -24 -2 -28 -8z m35 -45 c0 -8 -4 -15 -9 -15 -13 0 -22 16 -14 24 11
11 23 6 23 -9z"/>
<path d="M2534 2346 c-12 -32 0 -61 29 -64 15 -2 27 1 27 7 0 6 -6 8 -14 5 -8
-3 -17 -1 -21 5 -4 7 4 11 19 11 27 0 30 7 20 34 -8 20 -53 21 -60 2z m41 -6
c3 -5 -1 -10 -9 -10 -9 0 -16 5 -16 10 0 6 4 10 9 10 6 0 13 -4 16 -10z"/>
<path d="M2630 2356 c0 -2 7 -21 16 -42 15 -35 15 -39 -2 -51 -17 -12 -17 -13
0 -13 10 0 22 13 30 33 23 56 28 77 17 77 -6 0 -14 -12 -18 -27 l-6 -28 -10
28 c-5 15 -13 27 -18 27 -5 0 -9 -2 -9 -4z"/>
<path d="M2705 2340 c-16 -50 39 -86 64 -42 9 16 10 16 16 0 5 -12 18 -18 36
-18 27 0 29 3 29 40 0 22 -4 40 -10 40 -5 0 -10 -16 -10 -36 0 -45 -24 -42
-28 4 -3 33 -22 45 -22 15 -1 -17 -1 -17 -11 0 -14 24 -56 22 -64 -3z m50 -20
c0 -27 -22 -39 -31 -16 -8 22 3 49 19 43 6 -2 12 -14 12 -27z"/>
<path d="M2860 2320 c0 -22 5 -40 10 -40 6 0 10 13 10 28 0 15 5 33 12 40 9 9
7 12 -10 12 -19 0 -22 -5 -22 -40z"/>
<path d="M2944 2348 c-5 -8 -2 -9 10 -5 10 4 23 4 29 0 7 -4 2 -9 -13 -13 -39
-9 -34 -44 8 -48 28 -3 32 0 32 22 0 13 -3 31 -6 40 -7 19 -49 21 -60 4z m46
-37 c0 -12 -20 -25 -27 -18 -7 7 6 27 18 27 5 0 9 -4 9 -9z"/>
<path d="M3020 2305 c0 -30 5 -55 10 -55 6 0 10 7 10 15 0 8 9 15 19 15 22 0
35 30 26 60 -4 14 -15 20 -36 20 -29 0 -29 -1 -29 -55z m45 15 c0 -13 -6 -25
-12 -27 -9 -3 -13 6 -13 27 0 21 4 30 13 28 6 -3 12 -15 12 -28z"/>
<path d="M3100 2305 c0 -30 5 -55 10 -55 6 0 10 7 10 15 0 8 9 15 19 15 22 0
35 30 26 60 -4 14 -15 20 -36 20 -29 0 -29 -1 -29 -55z m45 15 c0 -13 -6 -25
-12 -27 -9 -3 -13 6 -13 27 0 21 4 30 13 28 6 -3 12 -15 12 -28z"/>
<path d="M3183 2344 c-4 -10 -2 -19 3 -21 22 -8 38 -22 31 -29 -3 -4 -14 -1
-23 7 -15 12 -17 12 -12 -1 7 -22 47 -25 55 -4 4 10 2 19 -3 21 -22 8 -38 22
-31 29 3 4 14 1 23 -7 15 -12 17 -12 12 1 -7 22 -47 25 -55 4z"/>
<path d="M3255 2290 c-3 -5 -1 -10 4 -10 6 0 11 5 11 10 0 6 -2 10 -4 10 -3 0
-8 -4 -11 -10z"/>
<path d="M3290 2290 c0 -5 5 -10 11 -10 5 0 7 5 4 10 -3 6 -8 10 -11 10 -2 0
-4 -4 -4 -10z"/>
<path d="M3325 2290 c-3 -5 -1 -10 4 -10 6 0 11 5 11 10 0 6 -2 10 -4 10 -3 0
-8 -4 -11 -10z"/>
<path d="M790 1896 l0 -54 81 0 c68 0 80 2 75 15 -3 8 -6 26 -6 39 0 20 -5 24
-30 24 -19 0 -30 -5 -30 -14 0 -9 8 -12 23 -9 20 4 20 4 -3 -9 -21 -12 -26
-12 -33 -1 -4 7 -5 18 -2 24 11 17 -15 39 -46 39 -28 0 -29 -1 -29 -54z m45
24 c3 -5 -1 -10 -9 -10 -9 0 -16 5 -16 10 0 6 4 10 9 10 6 0 13 -4 16 -10z
m10 -50 c-3 -5 -13 -10 -21 -10 -8 0 -14 5 -14 10 0 6 9 10 21 10 11 0 17 -4
14 -10z"/>
<path d="M1030 1932 c0 -15 -6 -18 -29 -14 -36 5 -58 -26 -41 -58 8 -15 20
-19 55 -18 25 0 45 5 45 11 0 7 4 7 12 -1 7 -7 22 -12 34 -12 16 0 23 8 28 30
7 38 24 39 28 3 3 -28 4 -28 73 -28 59 0 70 3 73 18 2 10 -5 21 -20 26 l-23
10 23 0 c13 1 20 5 17 11 -9 14 -52 12 -58 -2 -4 -10 -6 -10 -6 0 -1 6 -8 12
-16 12 -10 0 -15 -10 -15 -30 0 -16 -4 -30 -10 -30 -5 0 -10 14 -10 30 0 28
-2 30 -40 30 -39 0 -40 0 -40 -37 0 -35 -1 -36 -17 -20 -13 13 -14 20 -5 29 7
7 12 16 12 20 0 13 -28 9 -33 -4 -3 -7 -6 -1 -6 15 -1 30 -31 39 -31 9z m0
-48 c0 -11 -22 -24 -41 -24 -5 0 -9 9 -9 20 0 15 6 19 25 18 14 -1 25 -8 25
-14z m249 -21 c2 -1 -6 -1 -18 0 -11 1 -21 8 -21 15 0 12 3 12 18 1 9 -7 19
-14 21 -16z"/>
<path d="M1320 1895 c0 -56 16 -77 22 -28 4 39 28 42 28 4 0 -17 5 -31 10 -31
6 0 10 18 10 40 0 36 -2 40 -25 40 -16 0 -25 6 -25 15 0 8 -4 15 -10 15 -5 0
-10 -25 -10 -55z"/>
<path d="M1430 1885 c0 -42 3 -55 15 -55 9 0 15 9 16 23 l0 22 11 -22 c6 -13
15 -23 20 -23 5 0 13 10 18 23 l9 22 0 -22 c1 -14 7 -23 16 -23 12 0 15 13 15
55 0 44 -3 55 -16 55 -9 0 -21 -13 -27 -30 -6 -16 -15 -30 -18 -30 -4 0 -10
14 -14 30 -5 21 -13 30 -26 30 -16 0 -19 -7 -19 -55z"/>
<path d="M1960 1930 c0 -5 5 -10 10 -10 6 0 10 5 10 10 0 6 -4 10 -10 10 -5 0
-10 -4 -10 -10z"/>
<path d="M2200 1930 c0 -5 5 -10 10 -10 6 0 10 5 10 10 0 6 -4 10 -10 10 -5 0
-10 -4 -10 -10z"/>
<path d="M2560 1901 c0 -44 19 -58 22 -16 0 14 1 30 2 37 1 6 -5 13 -11 16 -9
2 -13 -9 -13 -37z"/>
<path d="M2510 1920 c0 -5 -9 -10 -20 -10 -16 0 -20 -7 -20 -30 0 -16 -4 -30
-10 -30 -5 0 -10 14 -10 30 0 17 -4 30 -10 30 -5 0 -10 -18 -10 -40 0 -39 1
-40 35 -40 33 0 35 2 36 33 2 27 2 28 6 7 6 -28 22 -52 32 -45 6 3 7 61 2 98
-2 11 -31 8 -31 -3z"/>
<path d="M1567 1903 c-4 -3 -7 -19 -7 -35 0 -29 30 -51 58 -41 20 8 14 23 -10
23 -27 0 -21 5 15 14 21 5 27 4 21 -5 -11 -19 25 -40 47 -28 13 6 25 6 38 -1
33 -17 52 -2 48 39 -2 31 -6 36 -30 39 -17 2 -27 -1 -27 -9 0 -10 -3 -10 -12
-1 -17 17 -58 15 -65 -4 -5 -15 -7 -15 -15 0 -9 16 -49 22 -61 9z m158 -33 c8
-13 -5 -13 -25 0 -13 8 -13 10 2 10 9 0 20 -4 23 -10z"/>
<path d="M1799 1908 c-1 -2 -3 -16 -5 -33 -4 -35 17 -56 47 -48 16 5 19 13 17
42 -3 31 -7 36 -30 39 -16 2 -29 2 -29 0z m38 -54 c-3 -3 -12 -4 -19 -1 -8 3
-5 6 6 6 11 1 17 -2 13 -5z"/>
<path d="M1874 1896 c-11 -29 1 -60 26 -67 24 -7 24 -7 -4 -8 -22 -1 -27 -4
-19 -12 6 -6 21 -9 34 -7 21 3 24 9 27 56 l3 52 -31 0 c-17 0 -33 -6 -36 -14z
m46 -26 c0 -21 -15 -27 -25 -10 -7 12 2 30 16 30 5 0 9 -9 9 -20z"/>
<path d="M1960 1870 c0 -22 5 -40 10 -40 6 0 10 18 10 40 0 22 -4 40 -10 40
-5 0 -10 -18 -10 -40z"/>
<path d="M1990 1870 c0 -29 4 -40 15 -40 10 0 15 10 15 30 0 17 5 30 10 30 6
0 10 -13 10 -30 0 -31 20 -43 20 -12 1 16 2 16 13 1 7 -9 21 -19 32 -22 18 -4
18 -5 -2 -6 -34 -2 -28 -21 6 -21 33 0 41 14 41 71 0 37 -2 39 -31 39 -19 0
-37 -7 -45 -17 -13 -17 -13 -17 -14 0 0 13 -8 17 -35 17 -34 0 -35 -1 -35 -40z
m130 0 c0 -11 -4 -20 -10 -20 -5 0 -10 9 -10 20 0 11 5 20 10 20 6 0 10 -9 10
-20z"/>
<path d="M2200 1870 c0 -22 5 -40 10 -40 6 0 10 18 10 40 0 22 -4 40 -10 40
-5 0 -10 -18 -10 -40z"/>
<path d="M2236 1898 c-15 -45 13 -85 46 -67 25 13 23 34 -4 48 l-23 11 24 -6
c17 -4 22 -2 19 7 -6 19 -57 24 -62 7z"/>
<path d="M2345 1890 c-11 -35 3 -60 35 -60 32 0 46 25 35 60 -4 14 -15 20 -35
20 -20 0 -31 -6 -35 -20z m45 -20 c0 -11 -4 -20 -10 -20 -5 0 -10 9 -10 20 0
11 5 20 10 20 6 0 10 -9 10 -20z"/>
<path d="M3401 1854 c0 -11 3 -14 6 -6 3 7 2 16 -1 19 -3 4 -6 -2 -5 -13z"/>
<path d="M3442 1840 c0 -19 2 -27 5 -17 2 9 2 25 0 35 -3 9 -5 1 -5 -18z"/>
<path d="M3536 1843 c7 -37 14 -42 14 -10 0 14 -4 28 -9 32 -6 3 -8 -6 -5 -22z"/>
<path d="M3611 1838 c-1 -29 -5 -37 -23 -41 l-23 -4 23 -2 c26 -1 35 16 29 56
-3 24 -4 23 -6 -9z"/>
<path d="M3678 1843 c5 -21 7 -23 10 -9 2 10 0 22 -6 28 -6 6 -7 0 -4 -19z"/>
<path d="M3310 1835 l-23 -25 34 1 c25 1 28 3 11 6 -23 4 -23 5 -6 24 26 28
11 23 -16 -6z"/>
<path d="M2560 1840 c0 -5 5 -10 10 -10 6 0 10 5 10 10 0 6 -4 10 -10 10 -5 0
-10 -4 -10 -10z"/>
<path d="M3500 1827 c0 -10 8 -17 18 -17 9 0 13 4 7 8 -5 4 -13 11 -17 16 -5
5 -8 2 -8 -7z"/>
<path d="M3647 1819 c7 -7 15 -10 18 -7 3 3 -2 9 -12 12 -14 6 -15 5 -6 -5z"/>
<path d="M387 1793 c-13 -12 -7 -37 15 -62 13 -14 16 -20 8 -13 -24 21 -30 14
-30 -42 0 -73 6 -86 41 -86 28 0 29 2 29 48 0 26 -6 54 -12 61 -19 20 8 5 55
-32 l37 -29 40 32 c35 27 40 37 40 72 l0 40 -40 -32 -40 -32 -51 41 c-49 39
-77 49 -92 34z"/>
<path d="M806 1713 c17 -67 21 -77 31 -80 6 -2 15 11 19 29 l7 33 14 -32 c18
-44 29 -41 42 11 13 55 14 66 1 66 -5 0 -12 -17 -16 -37 l-8 -38 -9 38 c-9 38
-24 48 -32 22 -16 -49 -17 -50 -27 -17 -11 39 -31 44 -22 5z"/>
<path d="M1490 1730 c0 -5 5 -10 10 -10 6 0 10 5 10 10 0 6 -4 10 -10 10 -5 0
-10 -4 -10 -10z"/>
<path d="M1690 1726 c0 -8 -10 -16 -22 -18 -17 -2 -24 -11 -26 -33 -4 -33 18
-56 48 -48 17 4 20 14 20 59 0 30 -4 54 -10 54 -5 0 -10 -6 -10 -14z m0 -56
c0 -10 -5 -22 -10 -25 -13 -8 -24 20 -16 41 8 20 26 9 26 -16z"/>
<path d="M1980 1685 c0 -59 17 -76 22 -23 4 46 28 49 28 4 0 -20 5 -36 11 -36
6 0 9 16 7 38 -2 30 -7 38 -25 40 -13 2 -23 10 -23 18 0 8 -4 14 -10 14 -5 0
-10 -25 -10 -55z"/>
<path d="M2400 1730 c0 -5 5 -10 10 -10 6 0 10 5 10 10 0 6 -4 10 -10 10 -5 0
-10 -4 -10 -10z"/>
<path d="M2482 1685 c1 -46 2 -52 7 -26 8 43 28 51 37 14 10 -48 12 -49 13 -5
1 38 -1 42 -23 42 -15 0 -26 7 -29 18 -3 9 -5 -10 -5 -43z"/>
<path d="M2890 1685 c0 -30 5 -55 10 -55 6 0 10 16 10 36 0 45 24 42 28 -4 3
-33 22 -45 22 -14 0 37 -13 62 -31 62 -11 0 -19 7 -19 15 0 8 -4 15 -10 15 -5
0 -10 -25 -10 -55z"/>
<path d="M3130 1685 c0 -54 1 -55 28 -55 15 0 33 5 39 11 8 8 13 8 17 0 4 -6
22 -11 40 -11 32 0 33 1 27 38 -5 31 -11 37 -34 40 -15 2 -27 -2 -27 -8 0 -7
8 -9 20 -5 28 9 25 -8 -5 -21 -19 -9 -27 -9 -36 2 -6 7 -8 18 -4 24 10 16 -14
40 -41 40 -22 0 -24 -4 -24 -55z m50 20 c0 -8 -9 -15 -20 -15 -11 0 -20 7 -20
15 0 8 9 15 20 15 11 0 20 -7 20 -15z m5 -45 c0 -8 -10 -16 -22 -18 -18 -3
-23 2 -23 18 0 16 5 21 23 18 12 -2 22 -10 22 -18z m75 -5 c0 -8 -7 -15 -15
-15 -26 0 -18 20 13 29 1 1 2 -6 2 -14z"/>
<path d="M3370 1685 c0 -30 5 -55 10 -55 6 0 10 8 10 18 1 16 1 16 11 0 5 -10
15 -18 20 -18 6 0 3 10 -5 22 -14 20 -14 24 1 40 18 20 4 25 -15 6 -9 -9 -12
-6 -12 15 0 15 -4 27 -10 27 -5 0 -10 -25 -10 -55z"/>
<path d="M3653 1685 c0 -46 1 -52 6 -25 8 46 35 48 39 3 3 -34 22 -47 22 -15
0 44 -13 64 -36 59 -17 -3 -24 1 -27 17 -2 12 -4 -6 -4 -39z"/>
<path d="M1530 1720 c0 -5 -9 -10 -20 -10 -17 0 -20 -7 -20 -40 0 -22 5 -40
10 -40 6 0 10 16 10 35 0 19 5 35 10 35 6 0 10 -15 10 -34 0 -35 13 -55 24
-37 4 5 2 12 -4 16 -12 8 -13 52 -1 57 5 2 3 9 -5 16 -8 7 -14 8 -14 2z"/>
<path d="M1752 1715 c-7 -9 -8 -15 -2 -15 5 0 10 -16 10 -35 0 -21 5 -35 13
-35 10 0 13 32 8 93 -1 11 -15 8 -29 -8z"/>
<path d="M2440 1720 c0 -5 -9 -10 -20 -10 -17 0 -20 -7 -20 -40 0 -22 5 -40
10 -40 6 0 10 16 10 35 0 19 5 35 10 35 6 0 10 -16 10 -35 0 -26 4 -35 17 -35
13 0 14 3 5 12 -14 14 -16 55 -3 60 5 2 3 9 -5 16 -8 7 -14 8 -14 2z"/>
<path d="M2848 1719 c-7 -21 5 -89 16 -89 9 0 12 35 7 93 -1 11 -19 8 -23 -4z"/>
<path d="M3048 1719 c-7 -21 5 -89 16 -89 9 0 12 35 7 93 -1 11 -19 8 -23 -4z"/>
<path d="M935 1691 c-14 -47 29 -87 57 -54 11 14 10 15 -9 9 -12 -4 -24 -2
-28 4 -4 6 4 10 20 10 22 0 26 4 23 23 -4 31 -53 37 -63 8z m45 -1 c0 -5 -7
-10 -16 -10 -8 0 -12 5 -9 10 3 6 10 10 16 10 5 0 9 -4 9 -10z"/>
<path d="M1049 1708 c-13 -61 3 -91 42 -81 16 5 19 13 17 42 -3 31 -7 36 -30
39 -16 2 -28 2 -29 0z m36 -18 c3 -5 -1 -10 -10 -10 -9 0 -13 5 -10 10 3 6 8
10 10 10 2 0 7 -4 10 -10z m0 -40 c-3 -5 -10 -10 -16 -10 -5 0 -9 5 -9 10 0 6
7 10 16 10 8 0 12 -4 9 -10z"/>
<path d="M1120 1670 c0 -22 5 -40 10 -40 6 0 10 14 10 30 0 17 5 30 10 30 6 0
10 5 10 10 0 6 -9 10 -20 10 -17 0 -20 -7 -20 -40z"/>
<path d="M1165 1691 c-14 -47 29 -87 57 -54 11 14 10 15 -9 9 -12 -4 -24 -2
-28 4 -4 6 4 10 20 10 22 0 26 4 23 23 -4 31 -53 37 -63 8z m45 -1 c0 -5 -7
-10 -16 -10 -8 0 -12 5 -9 10 3 6 10 10 16 10 5 0 9 -4 9 -10z"/>
<path d="M1277 1704 c-4 -4 -7 -20 -7 -36 0 -31 35 -54 56 -37 6 5 14 6 17 2
4 -3 13 0 21 6 10 8 16 9 21 1 12 -19 26 -11 15 10 -8 14 -8 26 0 40 11 21 -3
29 -15 10 -4 -7 -11 -7 -18 -2 -15 11 -81 15 -90 6z m38 -14 c3 -5 -1 -10 -10
-10 -9 0 -13 5 -10 10 3 6 8 10 10 10 2 0 7 -4 10 -10z m43 -25 c-3 -19 -54
-30 -63 -14 -4 5 5 9 19 9 20 0 26 5 26 22 0 16 3 19 11 11 6 -6 9 -19 7 -28z"/>
<path d="M1415 1690 c-11 -35 4 -62 33 -58 14 2 28 10 30 18 5 13 3 13 -11 2
-19 -16 -37 -8 -37 18 0 24 20 37 31 19 4 -7 11 -10 14 -7 12 12 -6 28 -30 28
-15 0 -26 -7 -30 -20z"/>
<path d="M1571 1696 c-17 -20 -11 -46 15 -63 18 -12 23 -11 35 3 12 15 12 16
-8 10 -12 -4 -24 -2 -28 4 -4 6 4 10 20 10 22 0 26 4 23 23 -4 26 -39 35 -57
13z m39 -6 c0 -5 -7 -10 -16 -10 -8 0 -12 5 -9 10 3 6 10 10 16 10 5 0 9 -4 9
-10z"/>
<path d="M1802 1698 c-27 -27 -6 -68 34 -68 25 0 39 28 29 60 -7 22 -44 27
-63 8z m43 -28 c0 -13 -6 -25 -12 -27 -16 -6 -27 21 -19 43 9 23 31 11 31 -16z"/>
<path d="M1914 1699 c-4 -7 2 -20 16 -31 12 -10 20 -21 17 -25 -4 -3 -13 0
-22 7 -10 8 -15 9 -15 2 0 -14 31 -31 48 -25 19 7 14 41 -8 48 -11 3 -20 11
-20 16 0 13 14 11 29 -3 11 -11 13 -10 9 2 -6 19 -44 25 -54 9z"/>
<path d="M2064 1698 c-5 -8 0 -9 14 -6 12 4 24 2 27 -2 3 -5 -5 -10 -17 -12
-15 -2 -23 -10 -23 -23 0 -15 8 -21 33 -23 28 -3 32 0 32 22 0 13 -3 31 -6 40
-7 18 -49 21 -60 4z m41 -48 c-3 -5 -10 -10 -16 -10 -5 0 -9 5 -9 10 0 6 7 10
16 10 8 0 12 -4 9 -10z"/>
<path d="M2140 1670 c0 -22 5 -40 10 -40 6 0 10 13 10 28 0 15 5 33 12 40 9 9
7 12 -10 12 -19 0 -22 -5 -22 -40z"/>
<path d="M2192 1698 c-25 -25 -7 -68 29 -68 10 0 21 5 25 11 4 7 0 9 -14 5
-11 -4 -23 -2 -27 4 -4 6 4 10 20 10 22 0 26 4 23 23 -3 25 -36 35 -56 15z
m38 -8 c0 -5 -7 -10 -16 -10 -8 0 -12 5 -9 10 3 6 10 10 16 10 5 0 9 -4 9 -10z"/>
<path d="M2294 1679 c9 -45 25 -60 32 -31 8 27 24 29 24 2 0 -20 14 -27 23
-12 3 4 8 22 12 41 5 23 4 31 -4 27 -6 -4 -11 -17 -12 -29 -1 -20 -2 -19 -12
6 -6 15 -14 27 -18 27 -4 0 -12 -12 -17 -27 -9 -25 -11 -25 -11 -6 -1 12 -6
25 -13 29 -8 5 -9 -2 -4 -27z"/>
<path d="M2580 1705 c0 -3 7 -22 15 -43 15 -34 15 -38 -2 -50 -17 -13 -17 -14
1 -10 13 2 25 20 37 56 10 28 14 52 9 52 -5 0 -13 -12 -17 -27 l-6 -28 -10 28
c-7 23 -27 39 -27 22z"/>
<path d="M2655 1691 c-11 -36 3 -63 33 -59 24 3 27 8 27 38 0 30 -3 35 -27 38
-19 2 -28 -2 -33 -17z m50 -12 c8 -23 -7 -45 -24 -35 -12 8 -15 39 -4 49 12
12 22 7 28 -14z"/>
<path d="M2730 1686 c0 -42 11 -56 41 -56 27 0 29 3 29 40 0 22 -4 40 -10 40
-5 0 -10 -16 -10 -35 0 -24 -5 -35 -15 -35 -10 0 -15 11 -15 35 0 19 -4 35
-10 35 -5 0 -10 -11 -10 -24z"/>
<path d="M2975 1700 c-5 -9 -1 -10 14 -5 11 3 21 2 21 -3 0 -5 -9 -12 -20 -15
-12 -3 -20 -14 -20 -26 0 -17 6 -21 31 -21 29 0 30 2 27 38 -2 29 -8 38 -25
40 -11 2 -24 -2 -28 -8z m35 -45 c0 -8 -4 -15 -9 -15 -13 0 -22 16 -14 24 11
11 23 6 23 -9z"/>
<path d="M3302 1698 c-25 -25 -6 -68 29 -68 10 0 21 4 24 10 4 6 -4 9 -17 7
-19 -2 -23 3 -23 23 0 20 4 25 23 23 13 -2 21 1 17 7 -8 14 -38 13 -53 -2z"/>
<path d="M3441 1668 l0 -43 12 34 c16 46 35 51 39 9 3 -29 7 -33 36 -36 31 -3
32 -3 32 38 0 25 -4 39 -10 35 -5 -3 -10 -19 -10 -36 0 -19 -5 -29 -15 -29
-10 0 -15 11 -15 35 0 33 -2 35 -35 35 -35 0 -35 0 -34 -42z"/>
<path d="M3576 1695 c-4 -10 3 -20 19 -27 33 -15 32 -32 -1 -24 -17 5 -23 3
-19 -4 3 -5 17 -10 31 -10 31 0 34 39 4 47 -11 3 -20 10 -20 15 0 6 9 8 20 5
11 -3 20 -1 20 4 0 15 -48 10 -54 -6z"/>
<path d="M810 1511 c0 -64 16 -85 22 -28 4 41 22 42 26 0 2 -22 8 -31 20 -31
9 0 22 0 27 -2 35 -9 46 0 43 38 -3 32 -7 37 -30 40 -25 3 -28 0 -29 -25 l-1
-28 -10 28 c-6 16 -17 27 -29 27 -10 0 -19 6 -19 14 0 8 -4 18 -10 21 -6 4
-10 -17 -10 -54z m120 -1 c0 -5 -7 -10 -16 -10 -8 0 -12 5 -9 10 3 6 10 10 16
10 5 0 9 -4 9 -10z m0 -34 c0 -11 -19 -15 -25 -6 -3 5 1 10 9 10 9 0 16 -2 16
-4z"/>
<path d="M1162 1548 c-5 -19 -11 -21 -54 -18 -33 2 -54 -30 -38 -59 22 -42 70
-29 70 19 0 17 5 30 10 30 6 0 10 -16 10 -35 0 -19 5 -35 10 -35 6 0 10 16 10
35 0 19 5 35 10 35 6 0 10 -16 10 -35 0 -47 20 -45 21 3 1 20 1 43 0 50 -1 6
6 12 15 12 33 0 3 14 -33 16 -27 1 -37 -4 -41 -18z m38 -8 c0 -5 -4 -10 -10
-10 -5 0 -10 5 -10 10 0 6 5 10 10 10 6 0 10 -4 10 -10z m-80 -50 c0 -26 -15
-33 -30 -15 -10 12 -10 18 0 30 15 18 30 11 30 -15z"/>
<path d="M1460 1511 c0 -34 4 -61 10 -61 6 0 10 24 10 54 0 30 -4 58 -10 61
-6 4 -10 -17 -10 -54z"/>
<path d="M1490 1511 c0 -65 20 -87 21 -23 l0 37 15 -39 c10 -29 11 -42 3 -53
-18 -20 -5 -26 13 -6 14 17 38 76 38 94 0 18 -18 8 -24 -13 l-7 -23 -9 23 c-5
12 -14 22 -20 22 -5 0 -10 6 -10 14 0 8 -4 18 -10 21 -6 4 -10 -17 -10 -54z"/>
<path d="M1350 1550 c0 -5 5 -10 10 -10 6 0 10 5 10 10 0 6 -4 10 -10 10 -5 0
-10 -4 -10 -10z"/>
<path d="M1620 1505 c0 -30 5 -55 10 -55 6 0 10 25 10 55 0 30 -4 55 -10 55
-5 0 -10 -25 -10 -55z"/>
<path d="M1960 1505 c0 -59 17 -76 22 -22 2 17 8 32 13 32 6 0 11 -15 13 -32
3 -34 22 -47 22 -15 1 16 1 16 11 0 10 -18 59 -25 59 -9 0 5 -8 7 -19 4 -10
-3 -21 0 -25 5 -3 5 7 12 23 14 22 3 31 0 34 -14 4 -12 15 -18 36 -18 31 0 31
0 31 55 0 30 -4 55 -10 55 -5 0 -10 -7 -10 -15 0 -8 -9 -15 -20 -15 -11 0 -23
-7 -27 -16 -5 -15 -7 -15 -15 0 -12 21 -45 20 -57 -1 -9 -17 -10 -17 -16 0 -4
9 -16 17 -26 17 -10 0 -19 7 -19 15 0 8 -4 15 -10 15 -5 0 -10 -25 -10 -55z
m125 5 c3 -5 -1 -10 -9 -10 -9 0 -16 5 -16 10 0 6 4 10 9 10 6 0 13 -4 16 -10z
m75 -20 c0 -31 -16 -41 -26 -15 -8 19 2 45 16 45 5 0 10 -13 10 -30z"/>
<path d="M2410 1505 c0 -54 0 -55 29 -55 21 0 32 6 36 20 9 30 -4 60 -26 60
-10 0 -19 7 -19 15 0 8 -4 15 -10 15 -5 0 -10 -25 -10 -55z m45 -15 c0 -13 -6
-25 -12 -27 -9 -3 -13 6 -13 27 0 21 4 30 13 28 6 -3 12 -15 12 -28z"/>
<path d="M2740 1545 c0 -8 -9 -15 -20 -15 -10 0 -24 -9 -30 -20 -15 -28 4 -60
35 -60 24 0 25 3 25 55 0 30 -2 55 -5 55 -3 0 -5 -7 -5 -15z m-5 -55 c0 -27
-22 -39 -31 -16 -8 22 3 49 19 43 6 -2 12 -14 12 -27z"/>
<path d="M3100 1505 c0 -30 5 -55 10 -55 6 0 10 15 10 33 l1 32 14 -32 c8 -18
17 -33 20 -33 3 0 12 15 20 33 l14 32 1 -32 c0 -18 5 -33 10 -33 6 0 10 25 10
55 0 30 -4 55 -10 55 -5 0 -18 -19 -28 -42 l-18 -42 -17 42 c-9 23 -21 42 -27
42 -5 0 -10 -25 -10 -55z"/>
<path d="M2258 1538 c-2 -7 -2 -29 2 -48 5 -34 7 -35 51 -38 56 -3 75 21 34
40 -14 6 -25 15 -25 20 0 12 14 10 29 -4 11 -11 13 -10 9 2 -3 9 -18 15 -38
16 -19 1 -36 6 -38 13 -5 15 -19 14 -24 -1z m50 -38 c7 -11 19 -20 27 -20 8 0
15 -4 15 -10 0 -14 -23 -13 -38 2 -9 9 -12 9 -12 0 0 -7 -4 -12 -10 -12 -5 0
-10 14 -10 30 0 35 10 38 28 10z"/>
<path d="M965 1520 c-9 -14 13 -40 33 -40 13 0 13 -3 4 -12 -10 -10 -15 -10
-22 2 -5 8 -13 11 -17 6 -15 -14 28 -36 49 -25 23 12 19 30 -10 45 -12 6 -19
14 -15 17 3 4 12 2 20 -5 15 -12 28 -5 18 11 -8 14 -52 14 -60 1z"/>
<path d="M1240 1490 c0 -22 5 -40 10 -40 6 0 10 18 10 40 0 22 -4 40 -10 40
-5 0 -10 -18 -10 -40z"/>
<path d="M1274 1516 c-11 -30 1 -61 25 -64 25 -4 50 13 37 25 -4 4 -11 1 -15
-6 -11 -18 -31 -5 -31 19 0 24 20 37 31 19 4 -7 11 -10 14 -7 12 12 -6 28 -31
28 -14 0 -27 -6 -30 -14z"/>
<path d="M1350 1490 c0 -22 5 -40 10 -40 6 0 10 18 10 40 0 22 -4 40 -10 40
-5 0 -10 -18 -10 -40z"/>
<path d="M1387 1523 c-8 -18 -6 -67 4 -73 18 -12 59 1 59 19 0 40 -13 61 -36
61 -12 0 -25 -3 -27 -7z m38 -13 c3 -5 -3 -10 -15 -10 -12 0 -18 5 -15 10 3 6
10 10 15 10 5 0 12 -4 15 -10z m0 -40 c-3 -5 -10 -10 -16 -10 -5 0 -9 5 -9 10
0 6 7 10 16 10 8 0 12 -4 9 -10z"/>
<path d="M1654 1519 c-5 -9 -1 -11 14 -7 12 4 24 2 27 -2 3 -5 -5 -10 -17 -12
-15 -2 -23 -10 -23 -23 0 -15 8 -21 33 -23 33 -3 33 -3 30 35 -3 33 -7 38 -30
41 -14 2 -29 -2 -34 -9z m41 -49 c-3 -5 -10 -10 -16 -10 -5 0 -9 5 -9 10 0 6
7 10 16 10 8 0 12 -4 9 -10z"/>
<path d="M1730 1497 c0 -41 14 -55 46 -49 20 4 24 10 24 43 0 47 -17 52 -22 7
-4 -46 -28 -49 -28 -4 0 20 -4 36 -10 36 -5 0 -10 -15 -10 -33z"/>
<path d="M1810 1490 c0 -22 5 -40 10 -40 6 0 10 16 10 36 0 46 23 41 31 -7 6
-34 6 -34 8 9 1 40 0 42 -29 42 -28 0 -30 -2 -30 -40z"/>
<path d="M1885 1511 c-11 -36 3 -63 33 -59 14 2 28 10 30 18 5 13 3 13 -11 2
-19 -16 -37 -8 -37 18 0 26 18 34 37 18 14 -11 16 -11 11 2 -8 24 -55 25 -63
1z"/>
<path d="M2233 1490 c0 -25 2 -35 4 -22 2 12 2 32 0 45 -2 12 -4 2 -4 -23z"/>
<path d="M2490 1489 c0 -47 17 -53 22 -7 2 25 8 32 28 33 35 3 50 -8 20 -15
-39 -9 -34 -44 8 -48 29 -3 32 -1 32 25 0 43 -11 51 -63 51 l-47 0 0 -39z m90
-8 c0 -12 -20 -25 -27 -18 -7 7 6 27 18 27 5 0 9 -4 9 -9z"/>
<path d="M2610 1490 c0 -22 5 -40 10 -40 6 0 10 16 10 36 0 46 23 41 31 -7 6
-34 6 -34 8 9 1 40 0 42 -29 42 -28 0 -30 -2 -30 -40z"/>
<path d="M2800 1516 c0 -8 -10 -17 -22 -19 l-23 -4 23 -2 c15 -1 22 -7 22 -21
0 -33 18 -23 22 12 4 46 28 49 28 4 0 -20 5 -36 11 -36 6 0 9 16 7 38 -3 34
-6 37 -35 40 -24 2 -33 -1 -33 -12z"/>
<path d="M2890 1515 c-20 -24 -4 -65 25 -65 13 0 27 5 31 11 4 7 0 9 -14 5
-11 -4 -23 -2 -27 4 -4 6 4 10 19 10 27 0 30 7 20 34 -8 20 -38 21 -54 1z m40
-5 c0 -5 -7 -10 -16 -10 -8 0 -12 5 -9 10 3 6 10 10 16 10 5 0 9 -4 9 -10z"/>
<path d="M2954 1514 c3 -9 9 -27 12 -40 8 -32 22 -30 31 3 l6 28 10 -28 c11
-33 23 -35 31 -3 3 13 9 31 12 40 3 9 2 16 -4 16 -5 0 -13 -10 -16 -22 l-7
-23 -9 23 c-5 12 -12 22 -15 22 -3 0 -10 -10 -15 -22 l-9 -23 -7 23 c-3 12
-11 22 -16 22 -6 0 -7 -7 -4 -16z"/>
<path d="M3232 1518 c-25 -25 -7 -68 29 -68 10 0 21 5 25 11 4 7 0 9 -14 5
-11 -4 -23 -2 -27 4 -4 6 4 10 20 10 22 0 26 4 23 23 -3 25 -36 35 -56 15z
m38 -8 c0 -5 -7 -10 -16 -10 -8 0 -12 5 -9 10 3 6 10 10 16 10 5 0 9 -4 9 -10z"/>
<path d="M3305 1520 c-9 -14 13 -40 33 -40 12 0 13 -3 4 -12 -8 -8 -15 -8 -28
3 -15 12 -17 12 -12 -1 7 -22 47 -25 55 -4 4 10 2 19 -3 21 -22 8 -38 22 -31
29 3 4 14 1 23 -7 15 -12 17 -12 12 1 -6 18 -43 25 -53 10z"/>
<path d="M3375 1520 c-8 -13 12 -40 31 -40 8 0 14 -4 14 -10 0 -14 -23 -12
-39 3 -11 10 -13 9 -9 -3 3 -8 17 -16 31 -18 21 -3 27 1 27 17 0 11 -9 22 -20
26 -11 3 -20 11 -20 16 0 13 14 11 29 -3 11 -11 13 -10 9 2 -6 18 -43 25 -53
10z"/>
<path d="M3455 1520 c-5 -9 -1 -10 14 -5 12 4 21 2 21 -4 0 -6 -6 -11 -13 -11
-19 0 -36 -20 -30 -36 3 -8 18 -14 35 -14 28 0 29 2 26 38 -2 29 -8 38 -25 40
-11 2 -24 -2 -28 -8z m35 -45 c0 -8 -7 -15 -15 -15 -16 0 -20 12 -8 23 11 12
23 8 23 -8z"/>
<path d="M3256 858 c-9 -12 -16 -28 -16 -35 0 -18 37 -53 55 -53 18 0 55 35
55 53 0 7 -7 22 -15 33 -14 18 -14 17 -4 -8 10 -24 9 -31 -6 -48 -10 -11 -23
-20 -30 -20 -7 0 -20 9 -30 20 -15 16 -16 25 -7 44 6 14 21 26 34 29 22 4 22
4 1 6 -12 0 -29 -9 -37 -21z"/>
<path d="M3360 860 c0 -5 5 -10 10 -10 6 0 10 5 10 10 0 6 -4 10 -10 10 -5 0
-10 -4 -10 -10z"/>
<path d="M760 835 c0 -8 5 -15 10 -15 6 0 10 7 10 15 0 8 -4 15 -10 15 -5 0
-10 -7 -10 -15z"/>
</g>
</svg>
