<?xml version="1.0" standalone="no"?>
<!DOCTYPE svg PUBLIC "-//W3C//DTD SVG 20010904//EN"
 "http://www.w3.org/TR/2001/REC-SVG-20010904/DTD/svg10.dtd">
<svg version="1.0" xmlns="http://www.w3.org/2000/svg"
 width="409.000000pt" height="843.000000pt" viewBox="0 0 409.000000 843.000000"
 preserveAspectRatio="xMidYMid meet">

<g transform="translate(0.000000,843.000000) scale(0.100000,-0.100000)"
fill="#000000" stroke="none">
<path d="M1080 5193 c1 -5 7 -19 15 -33 11 -20 14 -73 15 -244 0 -204 1 -218
18 -211 9 5 32 10 50 13 l32 4 0 69 0 69 120 0 c118 0 122 -1 145 -26 27 -30
31 -51 14 -87 -17 -38 -51 -47 -179 -47 -65 0 -131 -5 -147 -11 -38 -14 -83
-59 -83 -82 0 -18 8 -19 193 -16 181 4 195 6 242 29 29 14 60 40 73 60 20 30
23 45 20 102 -3 61 -7 71 -38 103 -19 19 -40 35 -47 35 -18 0 -17 4 16 39 66
71 37 187 -58 227 -25 10 -81 14 -217 14 -101 0 -184 -3 -184 -7z m360 -113
c23 -23 26 -68 6 -96 -13 -17 -27 -19 -123 -19 l-108 0 -3 54 c-5 82 -6 81
108 81 87 0 103 -3 120 -20z"/>
</g>
</svg>
