<?xml version="1.0" standalone="no"?>
<!DOCTYPE svg PUBLIC "-//W3C//DTD SVG 20010904//EN"
 "http://www.w3.org/TR/2001/REC-SVG-20010904/DTD/svg10.dtd">
<svg version="1.0" xmlns="http://www.w3.org/2000/svg"
 width="300.000000pt" height="300.000000pt" viewBox="0 0 300.000000 300.000000"
 preserveAspectRatio="xMidYMid meet">

<g transform="translate(0.000000,300.000000) scale(0.100000,-0.100000)"
fill="rgb(99.215686%,21.176471%,43.137255%)" stroke="none">
<path d="M928 2302 c-44 -5 -55 -28 -30 -62 49 -65 52 -107 52 -657 l0 -513
38 16 c51 23 118 41 175 49 l47 6 0 165 0 165 278 -3 279 -3 42 -28 c50 -33
78 -76 87 -135 13 -85 -48 -178 -133 -201 -22 -6 -144 -11 -283 -11 -135 0
-273 -4 -307 -9 -121 -18 -220 -81 -274 -175 -54 -96 -92 -88 429 -83 384 3
466 6 512 20 141 42 252 127 303 232 31 62 47 173 36 252 -16 118 -93 225
-204 284 -25 13 -45 26 -45 29 0 3 16 16 36 29 37 25 86 90 98 128 27 87 25
197 -6 278 -34 88 -110 155 -223 197 -58 22 -76 23 -470 28 -225 3 -422 4
-437 2z m804 -278 c71 -36 102 -157 56 -223 -52 -76 -51 -76 -329 -79 l-249
-3 0 160 0 161 198 2 c228 4 287 0 324 -18z"/>
</g>
</svg>
